<svg height="1000" viewBox="0 0 1000 999.99998" width="1000" xmlns="http://www.w3.org/2000/svg"><path d="m.00000544 1.2773473h999.99999456v999.9999527h-999.99999456z" opacity="0" stroke-width=".858993"/><circle cx="-675.08612" cy="269.93405" fill="#f00" r="2.311961" stroke="#000"/><g stroke-width="7.77839" transform="matrix(.96574114 0 0 .96574114 19.524367 -39.59331)"><path d="m285.51325 384.2798c-19.72268-13.00662-40.80878-16.47599-66.09189 9.44205-37.82947-.64412-31.03642 30.58444-31.47268 56.64984-11.39238 38.20861-77.93129 74.69371-9.44205 115.39735-53.16226 29.07947-50.29636 73.84934-24.5563 68.32699 8.48097-1.81946 20.01077-6.26159 33.99835-12.726-52.05795 74.80216-38.45613 91.95365 24.12914 66.09189-4.73361 11.46523-18.06043 19.85182-20.92136 29.15066-13.55215 44.05712 5.34032 63.61507 56.59023 32.74504-16.06871 43.47847-12.25 59.11258 43.01242 41.96275-6.35099 67.4437 25.04801 61.274 74.48427 19.93211 7.77748 50.91226 42.82202 36.67219 57.6995-3.14718 31.75 48.42881 57.93709 40.74834 90.22351-2.09818 42.26242 51.11921 52.56457-4.29338 71.33775-31.47268 31.14653 44.4702 47.03312 19.18129 58.74835-25.17798 22.2442-6.72815 46.95447-9.22765 50.35596-48.25745 46.78477-.68063 71.15894-17.72517 48.25745-71.33775 38.32285.12914 36.09851-25.08361 30.42301-52.45364 19.43957-11.80464 14.70944-38.71441 12.58941-63.99338 21.95778-111.47351-27.90729-81.80712-46.15977-102.80629l-88.13742-8.40232c-303.73344-213.68378-278.12914-51.53974-365.0745-17.83113z" fill="#0ff" stroke="#000"/><path d="m228.85762 413.65066c12.42715 3.12186 32.4851 6.11681 42.18791 14.68709" fill="none" stroke="#000"/><path d="m354.75166 266.7798-19.93212 37.76656-7.34354 44.06126 3.14718 30.42301s34.61921 49.30629 31.47268 54.55215c-3.14726 5.24545 200.37252-12.58857 200.37252-12.58857l82.8808 19.93212 22.03063-59.79719-6.29438-71.33775-126.93708-92.31788-179.3957 49.30629z" fill="#ececec" stroke="#fff"/></g><g stroke="#000" transform="matrix(.96574114 0 0 .96574114 19.524367 -39.59331)"><path d="m325.37252 371.68874c-2.94702-31.67632 1.20124-67.35596 24.32616-103.36092 51.18791-79.69123 162.62417-160.96027 264.33775-203.882455 24.53891-4.227401 43.19867 2.849503 58.17798 17.004967 36.08112 34.096858 50.80629 109.263248 74.88493 166.440398 10.2649 13.53063 18.75331 19.06291 26.2707 20.22848 14.61506 2.26614 25.56291-11.97351 38.77235-16.03229-22.88411 5.1356-17.5 93.07119-100.51325 33.24172-14.73013-10.61589-25.46026-31.38245-48.45447-81.49917v119.59437c-43.70943-25.17136-68.92467-1.02723-96.5149 16.7856-12.38493-25.18129-24.43377-51.90811-47.34023-64.13328-49.98675-26.67798-115.16556-18.68957-136.15894-15.7144-60.62831 8.59602-57.94371 74.04553-57.79222 111.31622z" fill="#0ff" stroke-width="7.77839"/><ellipse cx="826.18134" cy="251.26846" fill="#ff0009" rx="31.519613" ry="32.324245" stroke-width="10.3287"/><path d="m518.4106 272.02815c21.57285 12.38245 48.37748 21.76738 67.13411 7.68303 35.9644-18.05381 58.62086-75.85762 72.60596-116.39073 28.57947-104.51987-4.61052 63.15066 80.87831 113.39404 13.22682 6.33485 30.90149 4.66333 56.33775-10.98014l-12.58858 30.42302s-10.49089 8.39238-14.68709 9.44205c-4.19627 1.04909-27.27566-5.24545-32.52152-6.29445-5.24545-1.04909-36.71771-24.12914-36.71771-24.12914l-35.66888-70.28808 1.04909 33.57036-1.04909 83.92384-27.27649-7.34354-20.98179-2.09818-37.76655 18.88328-11.53974 9.44205-22.03063-41.96357-25.17798-27.27649z" fill="#1a1a1a" stroke-width="2.33353"/><path d="m388.31954 220.62086-30.42301 33.57037-12.58858 17.83443c17.70695-6.96291 35.18791-14.49089 55.60099-14.68708-6.74859-9.68709-12.73261-20.13825-12.58857-36.71772z" fill="#1a1a1a" stroke-width="2.33353"/><path d="m311.73841 451.41556c-12.21688 39.08278 11.1159 81.44702 21.64156 118.34437 5.93278 20.92053 13.37169 40.87169 29.90894 54.35928 25.29719 14.77069 64.10348-4.06308 93.61755-17.64818 22.80546-10.7111 53.06126-26.58527 70.07699-37.9909 29.19536-19.56953 39.24669-35.37996 49.12251-57.26821 38.3361 6.41912 53.41226-37.62748 64.31789-68.59934 5.37193-20.34768 3.01307-39.58609-15.9909-50.41225-11.45861 1.69454-20.36258-1.71846-45.17963 26.69288 16.59354-27.35513-1.97111-37.13079-11.53974-51.4048" fill="#ececec" stroke-linecap="round" stroke-width="7.77839"/><path d="m372.58279 374.31291-41.96275.52426" fill="none" stroke-width="7.77839"/><ellipse cx="345.9902" cy="370.45123" rx="14.890342" ry="14.890421" stroke-linecap="round" stroke-linejoin="round" stroke-width="6.1863"/><g stroke-width="7.77839"><g fill="none"><path d="m347.40894 338.12086-1.04909 56.12583"/><path d="m373.20365 369.22185c.88013 13.31292-.63705 23.02981-3.70903 30.41391" stroke-linecap="round"/><path d="m359.21358 485.77815c12.10099.70654 35.35844-1.52914 47.47848-2.51755 25.09933-7.14586 47.35513-21.76408 70.8038-36.04222 28.32782-13.50662 54.66308-24.23593 55.45116.64561-1.79081 12.26987-6.65116 23.44371-17.93377 32.3245-8.85431 4.88891-15.85099 9.98759-22.48013 17.52318-9.35348 11.0298-17.76242 22.69951-25.77318 34.66888-8.64901 12.92384-16.83361 26.19619-25.24172 39.38907-19.79471 24.38493-31.3212 62-70.50332 55.36589-21.64155-14.1043-27.04221-37.56291-38.81622-59.27317-2.62268-.52426-16.26076-54.55216-16.26076-54.55216l-7.34355-54.02732c27.74587-.34571 28.98842 24.32202 50.61921 26.49504z"/></g><path d="m318.601 472.18543c-29.17881 0-52.73676-22.62252-52.83278-50.52732-.0957-27.56291 21.68377-47.97102 52.83278-50.52731 121.44867 30.37665 79.22516 97.21026 0 101.05132z" fill="#0ff" stroke-linecap="round" stroke-linejoin="round"/><path d="m644.18047 444.65232c54.6192-5.07095 69.15645-21.52318 65.68212-43.09023-1.60903-9.98841-11.09769-12.42716-18.2409-23.98759 5.20431-41.2442-16.17549-38.69619-33.65397-58.54304" fill="#ececec"/><path d="m691.62252 372.69868c-9.66142 6.48294-17.50166 7.50231-25.22185 8.15993" fill="none" stroke-linecap="round"/></g><path d="m394.93378 347.47517c9.58609-23.25332 19.56954-31.6755 42.73096-39.1962 38.9702-5.44983 67.49834 38.46192 97.47516 75.54471" fill="none" stroke-linecap="round" stroke-width="12.2483"/><path d="m366.00166 344.51159c-4.35099-21.51821-11.2798-38.81788-37.09023-25.22185" fill="none" stroke-linecap="round" stroke-width="12.2483"/><g stroke-width="7.77839"><path d="m477.26822 345.24834c16.6937 32.73842 10.09519 59.28808-5.3279 74.80712-54.38494 38.25745-83.56788-9.24668-83.69205-44.39238" fill="none" stroke-linecap="round"/><ellipse cx="445.03876" cy="389.02606" rx="18.174442" ry="19.287163" stroke-linecap="round" stroke-linejoin="round"/><g fill="none"><path d="m443.1457 342.28477v88.27814"/><path d="m405.10762 388.47682 79.2053 1.04909"/><path d="m617.54139 436.73013c-.48923-21.16722-4.4211-20.30298-9.12086-14.524-6.12922 6.77698-4.60943 15.67632-6.04511 24.45447-2.61399 9.57864-3.56416 13.51986-9.48758 23.6399" stroke-linecap="round"/></g></g><path d="m643.62583 442.4255c21.44702-7.60373 24.12417-19.74421 28.99917-32.44702" fill="none" stroke-linecap="round" stroke-width="12.4454"/><path d="m449.25497 492.59934c13.96358 9.35265-31.40232 52.80298-51.08444 73.78146-22.87003 21.18211-40.70612 10.149-53.6846-31.96938-17.41556-32.09851-22.68791-41.51241 3.34876-30.50496 35.83278 24.00993 63.92798-9.05712 101.42384-11.30629z" fill="#dadada" stroke-width="7.77839"/><path d="m357.09437 514.37914c7.21052 15.5207 7.76482 29.03477 25.20199 30.22268 15.54553-1.60381 23.00331-17.62665 34.14321-31.70612l16.31954-18.54553-28.18874 13.35265-17.80381 8.90149-20.7707-2.2255-12.61092-8.90149 3.7091 8.90149z" fill="#0ff" stroke-width="3.11134"/><g fill="none" stroke-width="7.77839"><path d="m281.5149 767.73179c2.6606-27.43543 6.21176-56.29636 31.49752-72.59851 12.9106-7.05604 25.06043 5.44271 12.36424 42.67301l-35.66887 59.79719"/><path d="m312.78974 693.75828 39.86507-29.37417 46.15976-38.81623"/><path d="m268.72517 647.59934 94.42053-20.98179"/><path d="m220.47186 603.53477c5.24536 0 124.84271-4.19628 124.84271-4.19628"/><path d="m203.68378 544.78477c49.62252-.56548 93.19536 23.07119 137.4255 44.06126"/><path d="m211.02649 514.36258c37.9313 2.50679 75.79305 4.25133 116.44868 36.71772"/><path d="m207.8808 469.25497c57.36755 2.8596 78.67963 37.76821 113.30298 60.84685"/><path d="m205.77815 430.43874c37.61341 19.18957 78.24172 32.35017 108.05464 67.14073"/><path d="m444.53643 615.27318c25.81953 13.63328 61.18708 19.37252 84.36258 80.57947"/><path d="m450.21524 701.10099-7.34355-88.12086"/><path d="m365.24007 813.34437c19.56374-28.83692 24.36424-56.47682 23.37003-89.95033-18.19702-55.90977-43.22847-3.05422-42.72765 55.29719 3.22641 18.5447 1.3827 37.08857-12.11506 55.63327"/><path d="m438.46027 829.48676c2.93808-14.41474 10.52814-38.29388 15.84768-53.50497 7.19181-20.56374 12.53974-47.71937 5.17459-67.70944-9.89653-21.96854-36.50828-25.32699-45.89239.15944-.91953 19.29967-3.10538 38.59851 2.66358 57.89818 8.27798 24.31208 3.7822 31.59189 4.58394 45.93543"/><path d="m248.79139 748.94868c21.88991-21.0563 25.75249-50.03063 28.24421-79.2649 1.44975-26.29305-7.27873-32.22931-33.49007-3.20067-19.25496 28.15315-22.97682 54.36424-19.93212 79.73014"/><path d="m223.61755 603.53477c16.15812 14.28973 41.87252 12.71026-15.86092 88.19536"/><path d="m175.35596 564.71854c26.88742-5.95298 20.72186 17.8808 25.17798 29.37418"/><path d="m150.18212 535.34768c27.57782-18.17798 39.20033-10.82616 38.81623 15.73593"/><path d="m516.30795 805.97682c19.63245-28.23675 25.86424-64.53477 17.37169-97.74006-5.01134-15.32451-13.96109-21.11921-29.27566 2.42069-3.6404 11.62666-2.4875 30.92219 6.91175 63.41225l6.04131 32.95282"/><path d="m586.59769 771.37417c9.55049-19.46109 18.2649-38.12251 19.78559-59.78642.3524-28.9644-13.92467-54.54719-24.98758-41.14984-5.25695 30.55216-16.32036 51.98014-3.19007 111.42385"/><path d="m461.75497 606.68046c45.66722 10.98676 89.59437 26.6101 126.93709 59.79719"/><path d="m498.47683 584.65232c57.67218 12.74172 95.90231 34.21771 145.59602 57.59934"/><path d="m648.49338 740.96027c21.34603-16.98924 8.17616-143.07947-20.875-82.42798-9.36424 26.42715-1.65563 52.8543 8.2856 79.28062"/><path d="m698.82451 696.90397c15.42798-44.46274 23.88907-102.1937 7.28419-93.12086-30.82534 22.94537-24.48345 44.51822-15.67716 80.53394"/><path d="m707.26822 603.53477c-38.03477-30.58692-93.65894-25.99503-144.77649-30.42301"/><path d="m737.64901 546.88742c-54.64321-25.49255-112.66556-10.37417-169.95033-4.19628"/><path d="m779.61921 509.11424c-20.53808-13.32119-40.95613-22.99421-33.32864 16.39404 1.34097 6.9245 10.96109 20.41059 13.82119 30.61424"/><path d="m754.45365 498.62583c-64.36176-8.59437-114.851 3.61945-162.60762 19.93212"/><path d="m739.80133 628.70861c-3.29801-15.34437-14.59189-28.77483-16.54139-41.17715-6.53071-41.54636 6.01242-60.83692 41.71937-10.22765"/><path d="m649.54471 470.29801c45.8096-20.94288 91.62251-2.44677 137.42549-1.04917"/><path d="m765.96027 426.24172c-35.57037 4.5154-81.42219 4.6659-90.6457 19.7202"/></g><g stroke-width=".827815"><path d="m396.92053 628.63411c69.17633-25.76573 127.51656-71.6962 172.90563-135.32285 27.35845 5.10869 44.06623-21.73676 63.36424-40.81043l-13.96192 38.66308-18.25745 17.18377h-26.84934l-7.5178 20.40563-24.70115 32.21937-19.79553 13.19537-45.71606 26.54139z"/><path d="m665.41391 435.32285c20.09686-7.92782 28.62914-24.52898 37.58858-40.81043l7.51771 16.10927-21.4793 27.92301-35.44123 5.36987 11.81374-8.59189z"/><path d="m276.63908 451.43212c38.65149 18.34189 80.68212 1.97558 112.7649-23.09023 2.44776 12.38079-6.46904 21.6904-19.9106 28.4048-34.83444 17.40149-81.55712 14.9644-92.85596-5.3149z"/><path d="m823.57616 279.59437 22.82202-1.61093 10.20282-22.55298-5.90679-23.09023-15.57285-8.8601c.93634 3.52765 5.2803 3.37815 7.14727 7.61515 3.75596 19.19205 5.48891 35.43709-10.0298 47.21441-1.48551 1.54793-6.87616-.16766-8.66225 1.28518z"/><path d="m671.86259 375.7202c5.06573-11.74835 5.37756-15.40315 4.83286-27.38576l3.22194 15.03559c4.17616-7.275 3.26987-11.63741 1.61093-22.01655l9.66556 22.55298-.53692 6.44379-16.64653 12.35099z"/></g></g><g fill="#0ff" stroke-linecap="round" stroke-width="4.7234" transform="matrix(.82678014 0 0 .82678014 116.11039 -52.146071)"><path d="m296.21971 1173.6506q.13021-.3906.26042-.3906h.1302v.1302q0 .1302-.1302.2604l-.26042.2605zm82.68239-45.0521q-.78125 1.3021-1.04167 1.5625l-.1302.1302q-.13021 0-.13021-.1302v-.5208q0-.2604 0-.7813.13021-.5208.39062-1.1719.13021-.9114.26042-1.302 0 .2604 0 .3906 0 .1302 0 .2604.13021 0 .26042 0 .13021 0 .13021 0 0-.1302 0 0 0 0-.13021.1302 0 .1302-.13021.3906 0 .2605-.26042.6511l.13021.1302q.13021 0 .13021 0 .13021 0 .26042-.2604.1302-.2604.26041-.5209.26042-.3906.39063-.651.13021-.2604.26041-.2604h.13021q.26042 0 .26042.1302 0 .1302-.26042.5208-.13021.2604-.78125 1.3021zm-25.13024 27.3438q.13021-.1302.26042-.1302l.13021-.1302q.13021 0 .13021.1302 0 .1302-.13021.2604 0 .1302-.13021.1302l-.26042.1302q-.13021 0-.13021-.1302 0-.1302.13021-.2604zm.78125-3.9063.39063-.1302v.1302l.13021.1302q0 .1303-.26042.5209-.13021.2604-.39062.651-.26042.2604-.39063.2604-.13021 0-.26042 0 0-.1302 0-.2604 0-.1302 0-.1302 0-.1302-.13021-.1302 0-.1302-.1302-.1302 0-.1302.1302-.2604.26042-.1302.52084-.2604zm.78125-.2604q0-.5208.39063-.9114.39063-.3907.78125-.6511.52084-.2604.91146-.2604.13021 0 .13021.1302l-.13021.2604q-.13021.2604-1.04167 1.0417-.65104.5208-.78125.5208h-.13021q-.13021 0-.13021-.1302zm1.56251 1.6927q.39062 0 .26041.1302 0 .1302-.26041.2605h-.13021q-.13021 0-.13021-.1303 0-.1302 0-.1302.13021-.1302.26042-.1302zm4.94792-5.9896q.26042 0 .26042.1302 0 .1303-.26042.2605h-.13021q-.13021 0-.13021-.1302 0-.1303 0-.1303.13021-.1302.26042-.1302zm-2.34375 3.2553h.13021l.1302.1302q.13021.1302.13021.3906.13021.2604 0 .2604h-.13021l-.1302-.1302q-.26042-.1302-.26042-.3906 0-.1302.13021-.2604zm12.76043-13.9324h.26042q.26041 0 .39062.2605l.13021.2604q0 .2604-.26042.651-.13021.2604-.65104.5209-.26042.2604-.78125.5208-.39063.1302-.78125.3906-.26042.1302-.26042.2604v.1302q0 .1302.26042.1302.26042 0 .26042.1303 0 .1302-.26042.3906-.13021.2604-.52084.7812-.26041.3907-.65104.7813-.39062.2604-.52083.2604-.52084 0-.65104-.1302 0-.1302 0-.1302.1302 0 .39062-.1302.39063-.2604.65104-.5209.39063-.2604.39063-.5208l-.13021-.3906q0-.3906.39063-.7813.52083-.5208 1.17187-1.1718.52084-.3907.91146-.9115.39063-.2604.39063-.651zm-23.17711 19.5313q0-.1302 0-.1302.13021-.1302.26041-.1302l.26042-.1302.13021.1302h.13021v.1302q-.13021.1302-.39063.2604h-.13021q-.1302 0-.26041-.1302zm-5.46876 6.5104q.39063.1303.39063.2605-.13021.1302-.65105.3906-.52083.2604-1.30208.5208-.65104.2604-1.17188.5209-.52083.1302-.65104.1302 0-.1302.39063-.3907.39062-.2604.91145-.5208.65105-.3906 1.17188-.651.65104-.2605.91146-.2605zm8.07293-6.5104q.26041 0 .39062 0 .13021 0 .13021.1302.13021 0 0 .1302 0 0-.26042 0-.26041 0-.26041-.1302zm1.17187.3906q.13021-.1302.39063-.1302.13021 0 .13021.1302h.13021v.1303h-.65105zm-.65104-2.8645q.91146-.3907 1.17188-.3907l.13021.1302q0 .1302-.52084.6511-.39062.5208-1.04167 1.0416-.65104.5209-1.17187.7813l-.26042.1302q-.26042 0-.39062-.3906v-.1302q0-.1302.26041-.3907.26042-.2604.78125-.651.39063-.1302.65105-.3906.39062-.2604.39062-.3906zm.78125 1.9531h-.13021q0-.1302.13021-.1302.13021 0 .26042-.1302h.13021q-.13021.1302-.39063.2604zm7.6823-5.3386q.26042-.3906.39063-.3906l.13021-.1302.13021.1302-.52084.5208-.39062.2605q0-.1302.26041-.3907zm14.58335-17.8385q-.26041.2604-.39062.2604 0-.1302 0-.2604.13021-.1302.26042-.2604.1302-.1303.26041-.1303.13021-.1302.26042 0 0 .1303-.13021.2605-.13021.1302-.26042.1302zm-1.30208-.2604q-1.95313 2.7343-3.64584 4.8177-1.69271 2.0833-2.08333 2.0833-.91146 1.9531-2.60417 3.2552-.91146.7813-1.4323 1.4323-.26041.2604-.39062.6511-.13021.2604-.13021.651 0 .5208-.26042 1.0417-.13021.3906-.78125.3906.65104-.7813.65104-1.0417h-.13021q-.26041 0-.78125.3906-.39062.2605-1.04166.9115-1.17188.9115-2.21355 1.6927-.78125.5209-1.30208.5209h-.26042q3.125-3.1251 3.125-3.3855-.13021 0-2.73438 2.3438-2.99479 2.4739-7.03125 5.8594-4.03647 3.2552-7.5521 5.5989-3.38542 2.2136-4.81771 2.2136h-.26042l-.39062.1302v.1302h.13021q.26041.1302.65104.2604.39062 0 .65104.1302.39063 0 .52083.1302.13021 0 .13021.1302 0 .1302-.26041.3907-.13021.1302-.91146.5208-.65105.1302-1.04167.2604-.26042.1302-.39063.1302h-.26041v-.1302l.26041-.2604v-.1302h-.13021q-.1302 0-.1302-.1302 0-.1302.26041-.3906.26042-.1303.26042-.2605.13021-.1302 0-.1302-.13021 0-.26042 0-.13021 0-.39062.1302-.13021 0-.13021.1302-.26042 0-.91146.2605-.52083.1302-1.17188.3906-.65104.2604-.91146.3906-.1302.1302-.1302.2604l.1302.1302q.26042-.1302.78125-.2604.52084-.1302.91146-.2604.52084-.1302.78126-.1302.26041.1302.26041.2604l-.13021.1302q-.1302.2604-.91146.7813-.52083.2604-1.43229.3906-.78125.1302-1.82292.1302-1.04167.1302-1.95313.2604-.78125 0-1.04166.3906.52083.5209 1.30208.5209.39063 0 1.17188-.1302.78125-.2604 2.34375-.7813 2.21355-.7812 4.03646-.7812h.52084q.13021.1302.13021.2604 0 .1302-.26042.3906-.13021.1302-.65104.2604-.52084.1302-1.17188.2604-.52083.1303-.91146.2605-.26042.1302-.39062.1302 0 .1302-.13021.1302-.13021 0-.39063 0-3.64584.9114-6.90105.9114-11.84897 0-18.4896-11.7187l-.26042.2604q-.26042.3906-.78125 1.0417-.52084.651-.91146.9114l-.26042.1302q-.26042 0-.39062-.3906.26041-.2604.26041-.3906 0-.1302-.26041-.2604-.13021-.1302-.65105-.1302-.65104 0-.91146.2604-.26041.1302-.26041.5208v.1302q-.52084 0-1.04167.7813-.39063.651-.65104 1.5625v.5208q0 .5208.1302.7812.78126-.3906 1.4323-1.302.39062-.5209.78125-.9115.39062-.3906.78125-.5208-1.30208 1.4323-2.47396 3.3854-1.82292 3.125-4.29688 5.0781l-.65104.6511v-.2605q0-.1302.1302-.2604.13021-.2604.26042-.3906.13021-.2604.26042-.2604v-.1302q0-.2604.52083-.9115.52084-.651 1.4323-1.5625.52083-.651.91146-1.1719.52083-.651.65104-.9114.13021-.1302.13021-.2604 0-.1302-.26042-.1302-.13021-.1303-.26042-.1303-.26041 0-.65104.3907-.26042.3906-.65104 1.0416-.39063.6511-.65104.7813l-.26042.2604h.26042q.1302 0 .1302 0 .13021-.1302.26042-.1302.13021 0 0 .1302 0 .1302-.13021.3906-.26041.3907-.39062.5209l-.26042.2604-.13021-.2604q0-.1302 0-.1302 0-.1302 0-.1302 0-.1303-.13021 0-.13021.1302-.39062.3906-.78125.2604-1.17188.5208-.26042.2604-.39062.5208-.13021.2605-.13021.6511-.13021.3906-.52084 1.0417-.26041.651-1.30208 1.8229-1.04167 1.5625-1.04167 2.0833v.1302q.13021.1302.13021.2604-.13021 0-.26042-.1302-.13021 0-.26042 0-.1302-.1302-.26041-.1302-.13021 0-.26042.2604-.13021.1302-.39062.2605-.13021.1302-.26042.2604-.26042.1302-.39063.2604l-.13021.1302q0 .1302.26042.2604.65104.2604 1.04167.2604.26042 0 .52083-.2604.26042-.3906.52084-1.3021.13021-.7812.39062-1.4323.39063-.651 1.04167-1.1718 1.04167-1.3021 1.43229-1.6928l.13021-.1302.13021.1302-.52083.5209q-.13021.3906-.13021.9114-.52084 1.5625-1.17188 3.125-.65104 1.4323-2.21354 2.7344-.65104.1302-1.17188.7813-.39062.651-.78125 1.4323-.52083 1.0416-1.04167 1.6927-2.73438 5.3385-5.72917 9.2448-1.95313 2.7344-4.29688 6.3802-2.47396 3.9063-4.68751 8.9844-3.64584 8.4635-8.46355 13.2812h-.26042q-.39062 0-.91146-.2604-.39062-.2604-.78125-.651-.39062-.3906-.78125-.6511-.26041-.1302-.39062-.1302-.26042 0-.39063.1302-1.04167.6511-1.95313.6511-1.17187 0-1.69271-1.1719-.78125-1.5625-.78125-3.6458 0-.6511 0-2.474.13021-1.6927 1.04167-3.3854v.3906q0 .2604-.13021.6511 0 .3906 0 .7812v.3906q1.69271-5.0781 5.59897-14.3229-2.47396 6.7708-3.77605 13.4115.39063-.3906.39063-.9115.1302-.5208.1302-1.0416 0-.5209.13021-1.0417.13021-.5209.78125-.9115.13021 0 .26042 0 .13021 0 0 0 0 0-.13021 0 0 .1302 0 .2604h-.13021l-.1302.1302q0 .1303 0 .1303.1302 0 .26041 0 .52084-.2605.91146-1.1719.39063-.7813.65104-1.6927.52084-1.4323.91146-2.0834.65105-2.0833 1.30209-3.5156.65104-1.4323 1.43229-2.8646 1.17188-1.9531 3.12501-6.25.1302-.3906.39062-.9114.26042-.5209.52084-.9115.26041-.5208.52083-.5208h.13021q.26042 0 .52083.3906.13021.3906.13021.5208h-.39062q-.52084.1302-1.04167 1.0417-.52084.9114-.91146 1.9531-.26042.7813-.52084 1.3021-3.25521 7.1615-5.85938 13.6719-.39062.651-.39062 1.0417v.2604q0 .1302 0 .2604.1302.1302.26041.1302.13021.1302.26042.2604.13021.2604 0 .7813 0 .651-.52083 1.8229 2.21354-3.125 4.55729-6.7709 3.12501-5.2083 6.77085-9.8958v-.2604q0-.1302 0-.2604.1302-.2605.26041-.6511.26042-.5208.52084-.9114l.26041-.2605q-.26041 1.4323-1.04166 2.9948-.78126 1.5625-1.82292 2.474v.2604l.1302-.1302q.39063 0 .39063.1302l-.13021.1302-.52083.2604q-.26042.1303-.39063.2605l-.26041.1302q-.65105 1.9531-1.82292 4.1666-1.17188 2.0834-2.34376 4.5573v.5209q0 .5208.26042.5208.13021 0 .78125-.7812.65104-.6511 2.47396-3.5157 1.95313-2.7343 4.16667-6.3802 3.90626-6.1198 7.5521-11.3281 3.64583-5.3386 5.59896-6.3802h.39063v.1302q-.13021.1302-.39063.5208-.13021.3906-.52083.7813-.26042.3906-.52084.7812-.1302.3906-.26041.651h.39062q.39063-.1302.65105-.5208.26041-.3906.39062-.7812.13021-.5209.39063-.6511.78125-.3906.91146-.9114l.1302-.3907-.1302-.5208q-.78126.5208-1.04167.5208-.26042 0-.26042-.1302 0-.2604.65104-1.6927.78125-1.4323 3.64584-5.4687 2.9948-4.0365 6.38022-8.073 3.38542-4.1666 5.85938-6.7708 2.08334-1.9531 2.73438-1.9531.13021 0 .13021.1302 0 .2604-.39063.5208-.39062.1302-.91146.2604-.39062.1302-.52083.2604 0 .1302.39062.2605v.1302q.13021 0 .26042 0 .13021-.1302.26042-.2605.13021-.1302.26041-.1302.13021-.1302.26042-.1302.13021-.1302.13021 0 0 .2604-.26042.5209-.26041.2604-.65104.5208h-.39063l-.1302.2604-.13021.1302q-.13021 0-.26042-.1302h-.26042q-.13021 0-.39062.1302-.26042.1302-.78125.7813-.91146 1.0416-.91146 1.5625v.2604q.13021.2604.65104.2604.26042 0 .65104-.1302.52084-.1302 1.30209-.9115 1.5625 2.2136 4.03646 3.125 2.60417.9115 5.46876 1.3021 1.95312.3907 3.64583.7813v.1302q0 .1302.65105.1302.78125 0 2.08333-.1302 1.30209-.2604 2.73438-.6511 1.95313-.2604 3.38542-.5208 1.04167-.1302 1.69271-.1302h.39063q.78125 0 .91146.1302.13021 0 .13021.1302l-.13021.1302q-.26042.1302-.78125.3907-.52084.1302-1.04167.2604l-1.17188.3906q-.52083.5208-2.08333 1.0417-1.56251.3906-3.12501.7812-1.04167.2604-1.69271.5209l-.26041.1302h.1302q.39063 0 1.95313-.1302 4.5573-.1303 7.6823-1.1719 3.12501-1.0417 5.85938-2.474 2.21355-1.0417 4.68751-2.0833 0-.1302 0-.2604 0-.1302.13021-.1302.13021 0 .13021 0 0-.1303 0-.2605 0-.1302 0-.1302 0-.1302 0-.1302.13021 0 .26041 0 .13021 0 .26042-.1302.26042-.1302.26042-.3906.13021-.1302.26041-.1302l.26042-.1302.13021.1302q.26042 0 .39063 0 .1302-.1302.26041-.5209.91146-.7812 1.95313-1.6927 1.95313-1.9531 3.90626-3.125 1.30208-1.3021 2.73437-2.6041 8.20314-7.5521 13.6719-15.6251 8.98438-15.8854 8.98438-23.4375 0-1.4323-.39062-2.6042-1.30209-4.8177-6.38022-4.8177-2.47396 0-9.1146 2.2136-6.51042 2.2135-19.53127 14.5833 0-.1302.52084-.651.65104-.6511 1.5625-1.6927 1.04166-1.0417 2.08333-2.0834 1.04167-1.1718 1.69271-1.8229.65105-.5208.65105-.7812-.78126.7812-1.17188 1.0416h-.26042q0-.1302 0-.2604 0-.1302.26042-.5208.39062-.3906.78125-.6511.52083-.3906 1.04167-.5208.39062-.651.39062-.7812 0-.1303-.1302-.1303l-.39063.1303q-.52083.2604-1.95313 1.4322-1.30208 1.0417-2.99479 2.6042-1.5625 1.4323-2.9948 2.8646-1.43229 1.4323-2.08333 2.0833-.13021.3907-.13021.5209l.26041-.1302q.26042-.3907.39063-.2605.13021 0 .13021.2605 0 .2604-.26042.5208-.13021.1302-.39062.2604h-.13021q-.13021 0-.39063-.1302 0-.1302-.13021-.1302-.39062 0-1.04166.5208-.52084.5209-1.17188 1.4323-.65104.9115-1.17188 1.6927-.39062.7813-.52083 1.0417-.52084.5208-.78125.5208 0-.2604.52083-.9114l.13021-.1302h-.13021l-.13021.1302q-.26041.2604-.52083.3906-.39063.2604-.65104.5208-.26042.1302-.52084.1302h-.13021q3.12501-3.9062 9.63543-9.8958 6.64064-5.9896 13.8021-11.0677 7.29168-5.0782 12.10939-6.3802-1.69271-.2605-1.69271-.3907 0-.1302.13021-.1302.52083-.1302 1.69271-.1302.52084 0 1.95313.1302 1.5625.1302 4.03646 1.1719 2.47396.9115 3.77605 2.8646 2.73438 2.0833 3.64584 6.6406.91146 4.4271.91146 8.4636-.13021.2604-.26042.3906l-.13021.1302q-.13021.1302-.26042.2604 0 0 0 .2604l.13021.5209q0 .1302-.26042.5208-.1302.2604-.39062.6511-.39063.3906-.52084.9114-.1302.1302-.1302.5208 0 .2605.1302.6511.13021.1302.26042.1302v-.1302q0-.1302.13021-.3906 0-.1302 0-.1302 0-.1303.13021-.1303 0 .1303-.13021.6511 0 .3906-.13021 1.0417-.13021.5208-.26042 1.0416-.1302.3907-.26041.5209.13021-1.0417.13021-1.5625 0-.5209-.13021-.5209-.13021 0-.65104 1.9532-.13021.5208-.13021.7812v.1302l.26041-.1302.39063-.1302v.1302q0 .1302-.13021.5208-.13021.3907-.39062.7813-.26042.2604-.39063.3906v-.2604l.13021-.3906q0-.1302-.13021-.1302 0-.1302-.26042-.1302-.13021 0-.13021.1302v.651l-.1302.1302-.13021-.1302q-.26042-.1302-.39063-.5208-.13021-.3907-.13021-.9115 0-.3906.39063-.5208.39062-.2604.65104-1.4323.26042-1.1719.26042-2.2136 0-1.1718-.26042-1.5625 0-.1302-.13021-.1302-.26041 0-.65104 1.0417-.26042 1.1719-1.17188 3.3854l-1.30208 3.6459q-.52083 1.4322-.52083 2.2135v.3906q0 .5209.39062.5209.26042 0 .65104-.2605.13021 0 .13021.2605 0 .3906-.26042.9114-.26041.3906-.52083.6511l-.26042.2604h-.1302v-.3906q.1302-.2605.1302-.3907 0-.2604 0-.2604 0-.1302-.26041 0-.26042.1302-.78125.7813-.39063.5208-1.17188 1.4323zm-12.36981-31.3803-.78125.3906q-.26042.1302-.26042.2605v.1302q.13021 0 .39063-.1302.39063-.1303.78125-.3907.52083-.2604.65104-.5208l.13021-.1302q-.13021 0-.91146.3906zm-5.85938 3.9063q-.39063.2604-.65104.5208-.13021.1302-.13021.2604h.13021q.13021 0 .26041 0 .13021-.1302.39063-.2604.26042-.2604.39063-.3906.26041-.2604.26041-.3907.13021-.1302 0-.1302-.26041 0-.65104.3907zm12.76043-5.599q.39063-.1302.26042-.1302 0 0-.26042 0-.26041 0-.65104.1302-.26042 0-.52083.1302-2.73438.7813-5.07814 2.474-2.34375 1.5625-3.90625 1.6927l.39063-.3906q.26041-.2605.65104-.5209.65104-.3906.65104-.651l-.52083.2604q-.52084.2604-1.04167.651-.52084.3907-.91146.6511-.39063.2604-.39063.5208l.39063-.2604q.39062-.1302.52083-.1302h.13021l-.13021.2604q-.13021.1302-.78125.651-.52083.5209-1.30208 1.0417-.65105.5208-1.17188.7813h-.13021q-.13021 0-.13021-.1302v-.1303l.13021-.2604q0-.1302-.13021-.1302-.26041 0-.65104.3906-.39062.2605-.91146.6511-.39062.2604-.78125.651l-.26042.2605h-.1302l-.26042.5208q.26042-.1302.52083-.1302h.39063l.39062-.1302h.13021v.1302q-.13021.1302-.39062.2604-.65105.3906-.91146.3906h-.39063v.1302q0 .1302.26042.1302.39062 0 2.08333-1.0416 1.69271-1.0417 4.68751-2.9948 3.125-2.2136 6.1198-3.9063 2.99479-1.8229 4.03646-1.8229zm8.85418 24.2188q-.13021 0-.26042.2604 0 .1302 0 .2604v.1302l.26042-.2604q.26042-.3906.26042-.5208zm-52.73444 37.7604q-.13021 0-.26042 0 0 0 0 .1302 0 .1303.13021.2605h.13021q.26042 0 .26042-.1302 0-.1303-.26042-.2605zm-61.97924 49.3491q.13021 0 .13021-.1302 0-.1303-.13021-.3907-.13021-.2604-.39063-.5208-.13021-.1302-.26041-.1302 0 .2604-.13021.5208-.13021.2604-.13021.5209 0 .1302.26042.1302zm.26042-2.3438.1302-.1302h.13021q.13021 0 .13021-.1302.13021 0 0-.1302 0 0-.26042-.1302v.2604zm1.69271-4.5573q.1302 0 .1302-.1302.13021 0 .13021-.1302l-.26041-.2604q-.26042 0-.26042.1302 0 .1302.26042.3906zm1.30208 1.3021.26042.1302-.13021-.2604q0-.2604-.13021-.3906h-.13021v.2604q0 .1302.13021.2604zm61.84903-41.4063q-.65104.2604-.78125.3906v.1302h.39063q.13021 0 .26042 0 .26041 0 .52083 0 .39063-.1302.52083-.2604l.13021-.1302h-.13021q-.26041-.1302-.91146-.1302zm-2.60417.3906q-.65104.1302-.78125.1302l-.1302.1302h.1302q.13021 0 .39063 0 .39062 0 .78125 0 .39063 0 .78125-.1302h.39063q0-.1302-.39063-.1302-.26042 0-1.17188 0zm-6.64063-.1302q.26042.1302.39063.1302v-.1302q-.13021 0-.13021-.1302-.13021-.2604-.26042-.3906-.13021-.1302-.13021-.2604 0-.1302.26042-.2605l.13021-.1302h-.13021q-.13021-.1302-.52083-.1302-.39063 0-.91146.1302-.39063 0-.65105 0l-.1302.1302q.1302.1303.26041.2605.13021 0 .39063 0 .26042 0 .39062.1302.26042 0 .26042.1302l-.13021.1302q0 .1302 0 .2604.13021 0 .39063 0 .26041 0 .52083.1302zm3.77605-.651.39062-.1302q-.13021-.1302-.39062-.1302-.26042 0-.65104 0-.26042 0-.39063 0-.26042 0-.26042.1302 0 .1302.26042.2604.26042 0 .65104 0 .26042 0 .39063-.1302zm-3.12501-1.823q2.08334.1303 3.12501.1303h.65104q.39063 0 .39063-.1303 0-.1302-.78126-.2604-.65104-.1302-2.47396-.1302-.26041 0-.52083 0-.26042 0-.52083.1302-.26042 0-.39063.1302l.13021.1302zm8.46356 5.2084q.52083 0 .78125 0 .39062-.1302.52083-.2604l.13021-.1302q0-.1302-.39063-.2605-1.95312-.1302-3.125-.1302-2.08334 0-2.21354.3907 0 .5208 1.95312.5208.91146 0 2.34376-.1302zm7.6823-4.1667q.26041-.1302.26041-.2604 0-.1302-.1302-.1302-.13021 0-.52084.1302-1.04167.1302-1.30208.3906 0 .1302.39062.1302.39063 0 1.30209-.2604zm3.90625.1302q-.13021 0-.26042.1302 0 0 0 .1302v.1303q.13021 0 .13021 0 .13021 0 .26042 0 .13021-.1303.13021-.2605 0-.1302-.26042-.1302zm-.91146-1.4323q.39063-.1302 1.17188-.5208.91146-.3906 1.69271-.7813.78125-.3906 1.04167-.5208 0-.1302-.26042-.1302-.26042 0-.78125.1302-.13021 0-.39063.2604-.26041.1302-.78125.2604-.65104.3907-1.43229.7813-.65104.2604-.91146.5208zm4.5573-2.3437.26042-.1302q.13021 0 .26041-.1302.13021-.1302.26042-.1302.13021-.1303.13021-.2605v-.1302q-.13021.1302-.52083.3907-.26042.1302-.39063.2604zm3.77605-2.474q.91146-.5208 1.30208-.7812.26042-.1302.26042-.2605 0-.1302-.39063-.1302l-.26041.1302q-.26042.1303-.65105.3907-.26041.2604-.52083.5208-.13021.1302-.13021.2604zm4.94792-3.6458.26042-.2604q-.13021 0-.39063.1302-.26042.1302-.65104.3906-.26042.2604-.39063.3906l-.13021.2604h.13021q.13021 0 .39063-.1302.26041-.2604.39062-.3906.26042-.1302.39063-.3906zm1.95313-1.5625q.26041 0 .26041-.1302.13021-.1302.13021-.2604 0-.1303-.13021-.1303h-.13021q-.1302.1303-.26041.2605 0 .1302 0 .2604 0 0 .13021 0zm1.43229-1.4323q.13021 0 .52083-.2604.52084-.3907.91146-.7813.52084-.5208.78125-.9114.39063-.3907.39063-.5209-.13021 0-.65104.2604-.13021.1302-.78125.5209-.39063.3906-.91146.7812-.39063.2604-.52084.5209v.1302q0 .1302.26042.2604zm10.28647-8.2032q.52083-.651.65104-.9114l-.26041.1302q-.13021.1302-.52084.651-.39062.3907-.78125.9115-.39062.3906-.65104.7813-.26042.2604-.26042.3906.26042-.1302.52084-.3906.39062-.3907.65104-.7813.39062-.5208.65104-.7813zm-98.04699 51.4324q4.6875-12.8906 11.84897-25.5209-7.03126 14.0626-11.84897 25.5209zm32.68233-56.5105h-.39063q-.26042 0-.26042-.1302 0-.2604.13021-.5208-10.67709 14.5833-20.44273 31.6406 7.81251-15.625 16.66669-29.6875 8.85417-14.1927 17.18752-22.1354 5.85938-5.3386 10.54689-5.3386 2.08333 0 3.90625 1.0417.39063.3906.39063.9114 0 1.0417-1.82292 3.125-1.69271 1.9532-4.68751 4.5573-2.34375 2.0834-4.29688 4.1667-1.95313 1.9531-2.47396 3.5156-9.50522 9.3751-16.27606 21.224-5.59897 9.6355-12.36981 17.3178.13021 0 .13021 0 .13021 0 .39063-.1303.1302 0 .1302 0 .13021-.1302.13021 0 .13021 0 .13021.2605 0 .2604-.13021.3906-.13021.1302-.26041.2604l-.13021.1302q-1.04167 2.3438-2.21355 4.6875-.13021.2604-.26041.6511 0 .2604-.52084.651-.39062.2604-.91146.5208-.65104.3907-.91146.6511-.13021.1302-.13021.2604 0 .1302.26042.2604h.39063l.26041-.2604h.26042q0 .1302-.13021.2604-.13021.1302-.39062.3906-.13021.2605-.26042.3907-.13021.1302-.26042.1302v-.2604l.13021-.3907q-.13021 0-.52083.2604-.39063.6511-.65105.6511-.1302 0-.1302-.2604 0-.3907.1302-.7813.26042-.5208.39063-1.0416.26042-.5209.39063-.7813l.39062-.3906.13021-.2604q.13021-.2605.26042-.3907.13021-.2604.26041-.2604.13021 0 .26042.2604.13021.2605.26042.2605.13021 0 .26041-.3907.13021-.1302.13021-.2604v-.1302q-.13021-.1302-.52083-.1302-.26042 0-.78125.1302-.39063 0-.65104 0l-.39063.1302v.1302h.13021q0 .6511-.39063 1.8229-.39062 1.0417-1.04166 1.9532-.52084.9114-1.4323.9114-.13021 0-.13021-.1302 0-.1302 0-.2604 0-.2604.26042-.651.39063-.5209.65104-.7813.26042-.3906.39063-.3906.13021-.2604.26042-.7813.1302-.7812.39062-1.4323.39063-.7812.91146-1.1718.26042-.2605.65104-.2605.13021 0 .39063.1303l.26042.1302v-.1302q0-.1303 0-.2605 0-.2604 0-.2604.1302-.1302.39062-.1302l.13021.1302q.26042 0 .52083-.3906.39063-.5208.91146-1.4323.39063-.651.65105-1.1719.39062-.651.65104-.651.13021 0 .13021.1302l-.26042.5208q-.13021.1302-.26042.2604 0 .1302 0 .2605l.13021-.1303q.13021 0 .39063-.2604.1302-.3906.26041-1.1718.13021-.7813.39063-1.3021.26042-.2604.52083-.2604.13021 0 .39063.1302-.26042-.2605-.26042-.6511 0-.1302 0-.3906 0-.2604.26042-.5208.26041-.3907.26041-.5209 0-.2604-.39062-.2604-.39063.7813-.91146 1.1719-.52083.3906-.78125.651l-.39063.1302q0 .1302.26042.2605.13021 0 0 .1302 0 .1302-.26042.3906-.39062.1302-.52083.5208 0 .2604 0 .5209.13021.2604 0 .5208 0 .1302-.13021.2604-.13021.3906-.39062.651-.13021.1303-.39063.3907-.52083.2604-.91146.9114-.39062.7813-.52083.7813h-.13021q0-.1302 0-.2604 0-.1302.13021-.6511.13021-.5208.39062-.9114.39063-.3907.65104-.6511.39063-.2604.52084-.7812.26042-.5209.52083-1.0417.13021-.7812.52084-1.4323.39062-.7812 1.04166-1.0417.26042 0 .39063-.1302.26042-.1302.26042-.2604 0-.1302-.13021-.2604 0-.1302-.26042-.1302.13021-.3906.52084-.9115.78125-1.3021 1.69271-2.8646 1.04166-1.5625 2.08333-2.6041l.39063-.3907h.13021q0-.1302-.13021-.1302 0 0-.13021 0-.13021 0-.26042 0-.13021-.1302-.13021-.2604 0-.1302.26042-.2604.26042-.5208.52083-.651.26042 0 .26042.2604l-.13021.7812h.26042q.13021 0 .39063 0 .26041-.1302.52083-.2604.26042-.1302.26042-.2604 0-.2604-.39063-.2604h-.26042q-.1302 0-.26041-.1302-.13021-.1302-.13021-.2604 0-.2605 0-.5209l.26042-.1302.1302.1302q.52084.2604.78125.2604.26042 0 .39063-.3906l.13021-.1302q0-.1302-.13021-.1302 0-.1302-.26042-.1302-.13021 0-.39062 0-.26042 0-.39063 0-.13021 0-.13021-.1302l.26042-.2604q.26042-.5209.52083-1.1719.26042-.6511.52084-1.0417.39062-.5208 1.04167-.5208.13021 0 .13021-.2604.1302-.2604.1302-.5209.13021-.5208.26042-.7812.13021-.3906.52083-.3906h.26042l.13021-.1303v-.5208q0-.3906.13021-.7812.13021-.3907.52083-.5209.52084-.1302.52084-.3906.1302-.2604-.26042-.2604 0-.3906.13021-.3906.13021-.1302.39062-.1302.26042 0 .52084.1302h.39062q-.13021-.1302-.26041-.3907-.13021-.1302-.13021-.3906 0-.2604.26041-.651.26042-.5209.78126-1.3021.26041-.5209.52083-.9115.26042-.2604.26042-.3906l-.13021-.1302q-.13021 0-.65104.1302-.52084.3906-1.04167 1.0417-.39063.651-.65105 1.4323-.52083 1.0416-1.04166 1.6927-.26042.2604-.65105.2604-.39062 0-1.04166-.3906 0-.1302 0-.2605 0-.1302.13021-.1302l.26041-.2604-.13021-.1302q.39063 0 .65105-.2604.39062-.3906.65104-.7813.26042-.7812 1.04167-1.302.52083-.2605.52083-.5209.13021-.2604-.13021-.2604-.39062 0-.91146.5208l-.26041.1302.1302-.3906q.26042-.2604.52084-.651.39062-.3906.65104-.7813.26042-.3906.39063-.5208.1302-.2604.65104-.7813.52083-.5208 1.17187-.9114.52084-.3906.78126-.6511.39062-.2604.39062-.3906 0-.1302-.13021-.1302-.13021 0-.39062.1302zm-17.83857 36.9792.13021-.651v-.1302l-.13021.1302q-.1302 0-.26041.2604 0 .1302 0 .2604v.2604q0 .1302.13021.1302zm7.5521-14.7135q.52083-.9115.65104-1.1719l.13021-.1302q0-.2604-.39063-.2604-.26042 0-1.04167.9114-.78125.9115-1.43229 1.9532-.65104 1.0416-.65104 1.4322 0 .5209.26041.5209h.13021q.13021 0 .26042-.1302.13021-.1302.39063-.5209.26041-.3906.52083-.651.13021-.1302.26042-.1302.13021 0 .26041.1302h.13021v-.2604q0-.3906 0-.7813.13021-.5208.52084-.9114zm2.86458-6.6407v.2605q0 .1302.13021.1302h.26042l.26042-.1302q.1302-.1303.26041-.2605.26042-.2604.26042-.3906 0-.1302-.52083-.1302-.13021 0-.39063.1302-.13021.1302-.26042.3906zm1.56251-1.0416q.1302-.1302.1302-.2604.13021-.1303.13021-.2605 0-.1302-.13021-.1302v-.1302q-.1302.2604-.26041.3906 0 .1303 0 .2605zm1.04166-1.1719q.39063-.5208.39063-.7813 0-.1302-.13021-.1302h-.26042q-.13021 0-.26041.2605 0 .1302-.13021.3906-.13021.2604-.13021.5208 0 .1302.13021.1302.13021 0 .39062-.3906zm1.5625-2.7344q.39063-.5208.39063-.7812-.13021 0-.52083.2604-.26042.1302-.39063.3906-.13021.2604-.13021.3906l.13021.1302h.13021zm2.60417-3.3854q.26042-.5208.26042-.651-.13021 0-.52083.2604-.26042.2604-.26042.3906 0 .2604.13021.2604.13021 0 .39062-.2604zm.91146-4.0365q.26042 0 .26042 0 .13021-.1302 0-.1302 0-.1302-.13021-.1302-.13021 0-.26041.1302-.13021 0-.13021.1302zm3.64584-2.9948h.26042v-.1302q0-.1302-.13021-.1302 0-.1302-.13021-.1302-.26042 0-.26042.1302 0 .1302.26042.2604zm.39063-5.8593v.3906q0 .1302.13021.1302.26041 0 .39062-.1302l.13021-.1302-.13021-.2604q0-.1303-.13021-.1303-.13021 0-.39062.1303zm.52083-.9115v.2604q0 .1302.13021.2604.13021 0 .26042-.1302.26041-.1302.39062-.2604.26042-.1302.13021-.1302 0-.1302-.39062-.1302-.13021.1302-.26042.1302zm.65104-1.9531q-.39062.3906-.39062.5208v.1302h.13021q.26041 0 .65104-.2604.52083-.2604.52083-.3906l.13021-.1302h-.13021q-.26041-.1303-.52083 0-.26042 0-.39063.1302zm-.91146 1.1718q-.1302 0-.52083.3907-.26042.2604-.65104.7812-.39063.3906-.65104.7813-.26042.3906-.26042.5208l.39062-.2604q.26042-.2604.65105-.6511.39062-.3906.78125-.7812.39062-.3906.52083-.651v-.1303zm-1.5625 3.9063q-.26041.1302-.39062.2604l-.13021.1302q0 .1302 0 .2604 0 0 .13021 0 .13021 0 .26041-.1302.26042-.1302.39063-.2604.26042-.1302.26042-.2604l.1302-.1302h-.1302q-.13021 0-.52084.1302zm-.65104 3.776-1.5625 1.5625v.1303q0 .1302 0 .1302 0-.1302.26042-.2605.26041-.1302.52083-.3906.26042-.2604.39062-.5208.26042-.2604.39063-.3906l.13021-.2605zm-1.43229-1.5625q-.26042.1303-.39063.2605v.3906q0 .1302.13021.1302l.13021-.1302q.13021 0 .26042-.1302.1302-.2604.1302-.3906l.13021-.1303h-.13021v-.1302zm-9.24481 44.0105v-.2604l.13021-.1302q0 .1302 0 .2604 0 0-.13021.1302zm84.63552-47.2657q0-.2604.26042-.2604l.13021-.1302q.13021 0 .13021.2604 0 .1302-.13021.3906-.26042.5209-.78125 1.1719-.52084.5209-1.17188 1.0417-.65104.3906-1.04167.5208-.26041 0-.26041-.2604v-.1302q0-.1302.13021-.3906.26041-.2604.52083-.5209.39062-.2604.65104-.3906l.26042-.1302.39062.2604.13021-.1302q.13021 0 .26042-.2604.26042-.3906.39063-.651.1302-.2605.1302-.3907zm-27.73441 24.8699q.52084 0 .52084.2604l-.13021.1302q-.13021.2604-.52083.651-.39063.3906-.91146.7813-.65105.2604-1.30209.7812-.65104.6511-1.43229 1.0417-.39063.2604-.65104.2604-.26042 0-.52084-.1302 0-.2604.26042-.3906.26042-.1302.52083-.2604.39063-.1303.65105-.2605.26041-.1302.26041-.3906l-.13021-.1302q0-.651.39063-.7812.13021-.1303.39062-.1303.13021 0 .39063.1303.65104 0 1.17188-.2605.65104-.2604 1.04166-1.302zm-2.86458-42.8386q-.65104.3906-.78125.3906v-.1302q0-.1302.26041-.3907.26042-.2604.52084-.3906.26041-.2604.39062-.3906h.26042l-.13021.1302q-.13021.2604-.52083.7813zm19.01044 22.1354q-.52084.651-.65104.9115h-.13021q-.13021 0-.13021-.1302 0-.1303.13021-.3907.26041-.3906.39062-.7812.26042-.3906.52084-.6511.26041-.2604.39062-.2604.26042 0 .26042.1302 0 .2604-.78125 1.1719zm-17.18752 15.1042v.1302q-.13021.1302-.39063.1302l-.26042.1302q0-.1302 0-.1302 0-.1302.13021-.1302.13021-.1302.26042-.1302.13021-.1302.26042 0zm12.3698-11.0677q.26042-.2605.65105-.3907l.26041-.1302.13021.2604q0 .1303-.39062.3907-.65105.5208-.91146.5208v-.1302q0-.1302.26041-.5208zm2.86459-2.3438q.26042.1302.26042.2604.13021.1302-.26042.1302-.13021 0-.26042 0 0-.1302 0-.2604 0-.1302.13021-.1302l.13021-.1302zm-8.85418 8.724q-.26041.2604-.52083.3906-.13021.1302-.26042.2604-.13021.1302-.26041.2604-.13021.1302-.52084.2605l.13021.1302h.13021l.13021-.1302h.13021l-.26042.2604q-.52084.2604-.78125.3906-.26042.1302-.39063.2604l-.13021.1302v.1302q0 .1302 0 .2605 0 0-.13021.1302 0 0-.26041.1302-.26042 0-.65104.1302-.13021.2604-.52084.5208-.39062.1302-.65104.2604-.26042 0-.52084 0 0-.1302 0-.1302.13021-.1302.78126-.5208.39062-.2604 1.5625-1.3021 1.30208-1.0417 2.73438-2.3438 1.30208-1.302 2.47396-2.3437 1.17187-1.0417 1.95312-1.4323.52084-.2604.65105-.2604.13021 0 .13021.1302-1.04167 1.0417-2.60417 2.3437-1.30209 1.1719-2.34376 2.0834zm-14.06251-32.8126q-.13021-.1302-.13021-.2604 0-.1302 0-.1302.13021-.1302.13021-.1302.1302-.1302.1302 0 .13021 0 .13021.2604 0 .1302-.13021.2604zm-5.59897 5.3386q-.26042.2604-.39062.2604 0-.1302.1302-.2604.13021-.2604.26042-.3906l.26042-.2605v.1303q0 .1302-.26042.5208zm6.77084-6.3802q-.39062 0-.39062-.1302 0-.1302.13021-.2605.1302-.1302.39062-.1302l.26042-.1302.13021.1302q.1302 0 .1302.1302l-.1302.2605h-.13021q-.26042 0-.39063.1302zm24.4792-15.7553q0-.2604.13021-.1302.26041 0 .26041.1302.13021.1303.13021.2605h-.26041zm-14.71356 7.8126q-3.51563 2.3437-7.03126 5.7291v-.1302q0-1.0416 2.73438-3.3854 2.86459-2.3438 7.03126-5.0781 4.16667-2.7344 7.81251-4.4271 2.73438-1.3021 3.90625-1.3021.39063 0 .52084.1302-2.60417.9115-7.03126 3.2552-4.29688 2.3438-7.94272 5.2084zm-11.97918 52.0834q0 .1302-.13021.2604 0 0-.13021 0-.13021-.1302-.26042-.2604v-.1303q0-.1302.13021-.1302.13021 0 .26042.1302.13021 0 .13021.1303zm-5.07813-29.948 1.30208-1.3021v.1302l-.13021.1302q-.13021.2604-.39062.5209-.13021.1302-.39063.3906-.13021.1302-.39062.1302zm.91146 31.3802q0-.1302.1302-.1302.26042 0 .39063 0h.13021q.13021 0 .13021 0 .13021 0 .26041-.1302 0-.2604.13021-.2604.13021 0 .26042.1302.13021 0 .13021.2604 0 .1302-.26042.1302-.13021 0-.26042.1303 0 .1302 0 .3906l-.1302.1302v.1302l-.13021-.1302q0-.1302-.13021-.1302-.13021-.1302-.39063-.1302-.13021-.1302-.26041-.1302zm-25.26045-3.6458q.26042-.2604.39062-.2604.13021-.1302.13021.2604 0 .1302-.13021.1302l-.1302.1302q-.13021 0-.26042 0 0-.1302 0-.2604zm36.71879-2.0833q-.26041.2604-.52083.2604-.26042 0-.26042-.1302 0-.1302.39063-.5209.52083-.2604.78125-.2604l.13021.1302q0 .2605-.52084.5209zm-75.1303 43.099q-.78125.2604-.91146.7812v1.1719q.13021.2604.13021.3906 0 .2605-.13021.3907-.1302 0-.26041 0-.13021.1302-.26042.1302-.13021 0-.26042 0 0 0-.13021.1302-.1302.1302-.26041.3906-.13021.5208-.13021.7813v.1302q0 .1302 0 .1302 0 .1302.13021.1302.13021 0 .26041 0 .13021-.1302.26042-.1302 0 .1302-.13021.3906-.13021.2604-.26041.3906 0 .1302 0 .2604 0 .2605-.13021.3907-.13021.2604-.39063.5208-.13021.3906-.26041.3906v-.1302q0-.1302 0-.3906.1302-.2604.1302-.5208.13021-.2605.13021-.3907.13021-.1302.13021-.2604v.1302l-.39062.3906q-.39063.6511-.52084.6511l-.13021-.1302q0-.2604.26042-1.4323.39063-1.0417.91146-2.474.65104-1.3021 1.17188-2.3437.52083-1.1719.91145-1.5625l.26042-.2604v.7812q0 .1302 0 .2604.13021.1302.26042.2604l.26042.2605h-.13021q-.13021.1302-.52084.3906zm39.71359-42.7084q.39063-.2604.52084-.2604.13021 0 .13021.1302 0 .1302-.13021.3906-.13021.1302-.39063.2604-.13021.2604-.26041.2604-.13021 0-.13021-.1302v-.1302q0-.1302.26041-.5208zm22.13545-24.6094q-.13021.1302-.26042.1302 0-.1302 0-.2604 0-.1302 0-.1302.13021-.1302.26042-.1302.26041 0 .26041.1302 0 .1302-.26041.2604zm7.29167 27.7344q0-.1302.52084-.5208.52083-.5209 1.30208-1.0417.78125-.5208 1.4323-.7813.78125-.3906 1.04166-.3906h.13021q0 .1302-.39062.3906-.26042.2605-.65105.6511-.39062.2604-.65104.5208-.26042.2604-.26042.3906-.26041 0-.91146.3907l-.78125.2604q-.26041.1302-.52083.1302zm-2.47396 1.8229q.13021-.1302.13021-.1302.13021-.1302.26042-.1302.26041 0 .39062-.1302.26042-.1302.39063-.3906.13021-.1302.26041-.1302.13021-.1302.13021-.1302.13021 0 .13021.1302h.13021l.13021-.1302v-.1303l.39062-.1302v.1302l-.26041.2605q-.39063.2604-.78125.5208-.26042.2604-.65105.3906zm4.29688-39.0625-.13021.1302q-.13021.2604-.39062.5208-.26042.2604-.52084.5208-.26041.1303-.39062.2605h-.13021q0-.1302.26042-.3907.26041-.2604.52083-.5208.39063-.2604.65104-.3906zm-5.07813 38.9323-.13021.1302-.13021-.2604q.13021-.2604.26042-.3906.26042-.1302.39063-.1302l.1302.1302v.1302q-.1302.1302-.52083.3906zm.13021-35.9375q.26042-.5209.65104-.7813.39063-.3906.65104-.3906 0 .1302-.26041.5208-.13021.1302-.26042.3907-.13021.1302-.39063.2604-.26041.1302-.39062.2604l-.13021.1302q0-.1302.13021-.3906zm30.85941-25.9115-.26042-.1302q0-.1302.26042-.1302.26042 0 .52084 0 .39062 0 .52083.1302.26042 0 .26042.1302-.13021.2604-.39063.2604-.39062 0-.65104-.1302-.13021-.1302-.26042-.1302zm-96.35428 96.6147.26041-.1302q0 .1302-.26041.5208l-.13021.2604q-.13021 0-.13021-.1302 0-.2604 0-.3906.13021-.1302.26042-.1302zm68.88029-28.6459h.13021l-.13021.1302q-.13021 0-.26042.1302-.52083.1302-.65104.1302 0-.1302.13021-.2604.26042-.1302.52083-.1302l.13021-.1302zm-11.19793-31.7709q-1.04167 1.1719-1.30209 1.4323-.1302.1302-.26041.1302 0-.1302 0-.2604.13021-.1302.52083-.651.52084-.5209 1.04167-1.0417.52083-.651.91146-1.0417.52083-.3906.65104-.3906l-.39062.5209q-.52084.651-1.17188 1.302zm0-2.0833.78125-.651q0 .1302-.26042.5208v.1302q0 .2604-.26041.3906-.13021.1302-.39063.1302-.13021 0-.13021-.1302 0-.1302.26042-.3906zm-5.46876 6.5104q-.13021.1302-.26041.3907-.26042.1302-.39063.1302.13021-.1302.26042-.2605.13021-.2604.26041-.3906.13021-.1302.26042-.1302h.13021zm-11.19793 14.4532q0-.1302 0-.1302.13021-.1302.39063-.1302h.13021v.1302q0 .1302-.13021.2604-.13021.1302-.26042.1302h-.13021zm16.66669-26.6928-.26042.1302h-.13021l.13021-.1302q.13021-.1302.26042-.2604.13021-.1302.13021-.2604.13021-.1302.26041-.1302h.13021q0 .1302-.52083.651zm-13.02085 18.6198q1.43229-1.0416 3.77605-3.776 2.47396-2.7344 5.20834-5.8594 4.29688-5.2083 6.64063-7.4219-4.81771 6.7709-12.89064 15.2344-4.81772 5.0782-8.59376 9.6355 1.04167-1.6928 2.99479-3.9063 1.95313-2.2135 2.86459-3.9063zm11.45835-10.6771q-.13021.1303-.26042.2605-.13021 0-.26042 0 0-.2605 0-.3907.13021-.1302.26042-.2604.13021-.1302.26042-.1302.13021 0 .13021.1302 0 .1302-.13021.3906zm-13.28127 14.8438q.13021-.1302.26042-.1302.13021-.1302.13021.1302 0 .1302-.13021.2604 0 0-.13021 0h-.13021zm6.77084-7.1615q-.13021.2605-.26041.2605h-.26042q-.13021 0-.13021-.2605 0-.1302.13021-.1302l.13021-.1302q.13021 0 .13021.1302.1302 0 .26041.1302zm-6.25 8.4636q0-.1302.65104-1.0417.65104-.9114 1.69271-2.0833 1.04167-1.1719 1.95313-2.0833.91145-1.0417 1.17187-1.3021h.26042q0 .1302-.39063.651-.39062.3906-1.17187 1.4323-.78125.9115-1.69271 1.9531-.91146.9115-1.69271 1.6927-.65105.7813-.78125.7813zm3.90625-5.9896-.52083.5208q-.26042.1303-.26042.2605 0-.1302 0-.1302 0-.1303.13021-.2605.13021-.2604.39062-.3906l.13021-.1302q.13021 0 .13021.1302zm3.125-2.3437q0-.1303.13021-.2605.13021-.2604.26042-.3906.26042-.2604.39062-.3906.26042-.1302.39063-.1302l-.13021.1302-.39062.7812q-.26042.2605-.39063.2605zm2.21355-2.2136q-.39063.2604-.65104.5208-.13021.1303-.26042.1303 0-.1303.13021-.3907.26041-.2604.52083-.5208.26042-.2604.52084-.3906.26041-.2604.39062-.2604l-.13021.1302q-.13021.2604-.52083.7812zm1.43229-1.9531q.26042-.3906.65104-.7813.39063-.5208.78126-.9114.26041-.1302.52083-.1302l-.13021.1302q-.13021.2604-.52083.651-.26042.2604-.65105.6511-.26041.2604-.52083.3906zm-63.67195 67.9688q.13021 0 .13021 0 0 .1302 0 .2604.13021.1302.13021.2605l-.13021.1302-.13021-.1302zm79.94801-42.1875.39063-.1302q0 .1302-.26042.3906h-.39062v-.1302zm1.30209-.3907q-.13021.1302-.26042.1302-.13021 0-.13021-.1302h-.13021q0-.1302.13021-.1302.13021 0 .26042 0 .13021-.1302.13021-.2604.13021-.1302.13021-.2604 0-.1302.13021-.2604v.2604q0 .2604-.13021.5208 0 .1302-.13021.1302zm-76.43239 29.6876q-.26041 0-.26041-.1302 0-.2604.1302-.7813.26042-.5208.78126-1.5625.52083-1.0417.78125-1.3021l.26041-.2604v.2604q-.1302.1302-.39062.7813-.13021.5208-.39063 1.1719-.26041.651-.52083 1.1718-.26042.5209-.39063.6511zm2.86459-6.6407q-.13021 0-.13021-.2604 0-.1302 0-.3906.13021-.2604.26042-.3906.13021-.2604.26042-.2604h.1302v.1302q0 .1302-.1302.651-.13021.2604-.26042.3906 0 .1302-.13021.1302zm-6.51042 16.6667q-.39063 1.1719-.52084 1.4323v.1302q0-.1302 0-.3906 0-.2604.26042-1.0417.26042-.7812.39062-1.5625.26042-.7812.39063-1.4323.26042-.5208.39062-.651l.13021.3906q0 .2604-.13021.5209-.1302.3906-.39062 1.0416zm5.85938-15.1042q-.26042.3907-.39063.3907v-.2604q0-.2605.13021-.5209.13021-.2604.13021-.5208.13021-.2604.26042-.2604h.1302l.13021.1302q0 .1302-.13021.5208-.1302.2604-.26041.5208zm-2.73438 5.7292.13021-.1302v.1302l.13021.1302v.3907l-.13021.1302-.13021-.1302zm-.52083 2.474q-.26042.5208-.39063.651v-.2604q0-.1302 0-.2604 0-.2604.13021-.6511.13021-.3906.26042-.651.1302-.2604.26041-.2604.26042 0 .26042.1302v.1302q-.13021.2604-.52083 1.1719zm-1.04167 2.4739q-.13021.5209-.26042.5209h-.13021v-.1302q0-.1302 0-.3907.13021-.2604.26042-.5208.13021-.2604.26042-.2604.26041 0 .26041.1302l-.13021.2604q-.1302.1302-.26041.3906zm15.88543-19.7916.26042-.1303v.3907q-.13021.2604-.52083.7812-.26042.5209-.65105 1.0417-.39062.5208-.78125.7812 0 .1302-.13021.1302-.1302 0-.39062-.2604v-.1302q0-.1302.13021-.3906.13021-.3906.39062-.651.26042-.3907.52084-.3907.13021 0 .13021.6511.1302-.1302.26041-.3907.13021-.3906.26042-.651.13021-.2604.26042-.3906.1302-.2604.26041-.3906zm-.91146-6.9011h.13021q.13021 0 .39063-.2604.26041-.2604.65104-.7813.26042-.3906.39063-.651.26041-.2604.39062-.2604 0 .1302-.39062.7812-.39063.6511-.78126 1.1719-.39062.5208-.65104.651-.13021 0-.13021-.1302zm-.1302 6.6406q.26041-.1302.39062 0 .13021 0 .13021.1302 0 .2605-.13021.5209l-.13021.1302q-.13021 0-.26041 0 0 0-.13021-.1302 0-.1302 0-.2604 0-.2605.13021-.3907zm-4.5573 2.7344q.26042-1.3021 1.04167-2.9948.91146-1.6927 1.69271-2.9948.91146-1.4323 1.43229-1.9531.13021-.1302.26042-.1302l.13021.1302q0 .2604-.39063 1.0417-.26042.651-1.95313 4.0364-1.17187 2.3438-1.95312 3.7761-.78126 1.4323-1.4323 2.4739-1.04167 1.5625-2.08333 3.6459.1302-1.4323 1.04166-3.5157 1.04167-2.2135 2.21355-3.5156zm6.64063-12.3698.13021.1302-.13021.1302q-.13021.2604-.39062.5209-.26042.2604-.52084.5208-.26042.1302-.39062.2604l-.26042.1302q0-.1302.13021-.3906.13021-.2604.39062-.5208.39063-.3907.65105-.5209.26041-.2604.39062-.2604zm-5.46876 21.0938q-.1302 1.1719-1.04166 1.6927-.52084.2604-.91146.2604-.39063 0-.65105-.1302-.39062-.1302-.39062-.7813v-.5208q0-.651.52083-.7812l.52084-.1302.52083.1302h.78125q.39063-.1302.39063-.2605l-.13021-.1302q.13021-.1302.26042-.2604.26041-.2604.39062-.2604 0 .3906-.26042 1.1719zm-4.03646 7.2917q0 .1302.13021.3906.13021.1302.26042.2604v.2604h-.13021q-.13021 0-.26042-.1302-.13021-.2604-.13021-.5208zm1.5625-4.0365q-.13021-.2604-.39062-.2604-.26042 0-.52084.2604-.26041.1302-.52083.2604l-.26042.2604v-.2604l.26042-.651q.13021-.3907.26042-.5209h.13021q.1302 0 .26041.1302.13021.1303.26042.2605.13021 0 .39062 0 .52084.1302.65105.2604.13021.1302 0 .3906 0 .1302-.13021.1302-.26042 0-.39063-.2604zm17.83857-42.7084q.13021-.2604.39062-.3906.26042-.2604.65104-.5209.65105-.3906 1.04167-.7812.39063-.2604.39063-.651l-.13021-.1303q.13021-.2604.39063-.3906.26041-.1302.52083 0 .26042 0 .26042.1302 0 .2604-.65105.7813-.78125.9114-1.30208 2.2135-.39063 1.0417-1.04167 1.8229-.52083.6511-1.43229.6511h-.39063q-.52083-.1302-.52083-.3906 0-.2605.39062-.2605.26042-.2604.52084-.3906.26041-.1302.39062-.1302.13021 0 .26042 0 .13021-.1302.13021-.3906.13021-.3906.13021-1.1719zm-23.69795 46.224q.13021.1302.13021.3906 0 .2605 0 .3907h-.26042q-.13021-.1302-.26041-.3907 0-.2604 0-.5208v-.1302q.1302 0 .39062.2604zm15.3646-31.6406q.52084-.5209.78125-1.0417.26042-.5208.78126-.9115v-.1302q0-.2604.1302-.5208.13021-.2604.39063-.5208.13021-.1303.13021-.2605.13021-.1302.13021-.2604.1302-.1302.1302-.5208.13021-.3906.26042-.6511.26042-.3906.65104-.3906.13021-.2604.52084-1.0416.39062-.9115.91146-1.6928.65104-.7812 1.04167-1.0416v-.1302q0-.2605.26041-.5209.26042-.3906.65104-.7812.39063-.3906.65105-.6511h.26041v.1302q0 .1303-.52083 1.0417-.78125 1.0417-2.47396 3.9063-1.5625 2.4739-2.9948 4.8177-1.30208 2.2135-1.95312 2.8646l-.13021.1302-.13021-.1302q0-.3907.52083-1.6927zm-14.19272 28.5156q0-.2604.13021-.2604.1302-.1302.26041-.1302.26042 0 .26042.2604 0 .1302-.13021.3906-.13021.1302-.26042.1302-.1302 0-.26041-.3906zm-2.9948 7.0313q0-.2604.13021-.5209l.26042-.1302.13021.1302q.1302 0 .1302.1303.13021.2604-.1302.651l-.13021.2604h-.13021q-.26042 0-.26042-.5208zm4.94792-11.3282v-.1302q.13021.1302.13021.3907 0 .1302 0 .2604l-.13021.1302-.1302-.1302q0-.1302 0-.2604 0-.2605.1302-.2605zm1.69272 7.5521.1302.2604-.26041-.1302q-.26042-.1302-.26042-.2604 0-.1302 0-.1302.13021-.1302.13021 0 .13021 0 .26042.2604zm17.18752-23.6979.39062-.2604q0 .1302-.39062.651l-.39063.3906q0-.1302 0-.1302 0-.1302.13021-.2604.13021-.2604.26042-.3906zm4.55729-6.1198q.52084-.5208.65105-.5208h.1302q0 .1302-.1302.3906-.13021.1302-.39063.5208-.26042.2604-.65104.5208-.52084.5209-.65104.5209l.1302-.1302q0-.2604.91146-1.3021zm2.9948-3.7761q.26042-.3906.52083-.7812.26042-.3906.39063-.5208.26042-.2605.39062-.2605l-.1302.2605q-.13021.2604-.39063.5208-.13021.2604-.39063.5208-.26041.2604-.39062.3906zm30.7292-35.4167q-.26041.1302-.39062.1302v-.1302q0-.1302 0-.2604.13021-.2604.26041-.3906.26042-.2604.52084-.2604.13021 0 .13021.2604 0 .2604-.13021.3906-.13021.1302-.39063.2604zm-26.1719 29.6876q0-.1302.1302-.3907l.13021-.1302.26042-.1302h.13021v.1302q-.13021.1302-.26042.3907-.13021.1302-.26042.1302zm23.69794-26.6928q-.13021 0-.39062.1302-.13021 0-.39063.1302-.26042.1303-.39062.1303h-.13021l.13021-.1303q.1302-.1302.39062-.2604.26042-.1302.52083-.2604h.26042l.13021.1302zm-48.43756 54.8178.26042-.3906q.13021 0 .13021.1302 0 .1302-.13021.3906 0 .1302-.26042.2604-.13021.1302-.26041.1302h-.13021q-.13021 0-.26042 0-.13021 0-.39063.2605-.1302.2604-.1302.3906 0 .1302 0 .2604 0 0 .26041.1302.26042 0 .52084 0 .26041.1302.26041.2604.13021 0-.1302.1302-.13021 0-.91146.2604-.39063.2605-.65105.2605h-.1302q-.13021-.1302-.13021-.2605 0-.1302.13021-.2604.1302-.2604.39062-.7812.13021-.3906.26042-.7813.26041-.5208.26041-.7812l-.1302-.1302q0-.1302 0-.1302.1302 0 .26041 0 .13021 0 .26042 0 .13021-.1302.26042-.2605.13021-.2604.13021-.1302 0 0 0 .2605 0 .1302 0 .3906-.13021.2604-.13021.5208v.2604q.13021 0 .39062-.3906zm42.57818-48.9584-.13021.1302q-.26042.1302-.39062.2604l-.26042.2605v-.1303l.13021-.1302q.13021-.2604.26041-.3906.13021-.1302.26042-.1302h.13021zm-54.68757 66.4063q.52084-.3906.65105-.3906.1302 0 .1302.1302 0 .1302-.26041.6511 0 .2604-.13021.2604h-.39063q-.26041-.1302-.26041-.2604 0-.2605.26041-.3907zm25.78128-30.9896v-.1302q0-.1302 0-.2604.13021-.1302.39063-.2604.26042-.1302.52083-.1302.26042-.1302.39063-.1302l.13021.1302-.26042.1302q-.13021 0-.39062.1302-.26042.1302-.39063.2604l-.26042.2604zm-11.84897 10.1563q.26042.1302.39063.2604h.13021l-.13021.1302q-.39063.1302-1.30209.1302-.65104 0-1.17187.1302-.52084 0-.78126.2604 0 .1302.26042.1302h2.08334q.26041.2605.26041.5209 0 .2604-.26041.5208-.13021.1302-.39063.1302-.26041 0-.78125-.1302-.26042-.2604-.39062-.2604-.13021 0-.26042.1302-.13021.1302-.26042.1302l-.13021.1302-.13021-.1302v-.2604l-.26041.1302q-.39063.2604-.52084.2604-.26041 0-.26041-.2604 0-.3906.39062-1.3021.39063-.9114.91146-1.9531.65104-1.0417 1.04167-1.6927.39063-.6511.52083-.6511.39063.1303.39063.3907l-.13021.2604q-.13021.2604-.52083.7812-.26042.3907-.39063.9115-.13021.2604-.13021.5208v.9115h.52084q.26041-.1302.52083-.1302.39063-.1302.78125 0zm1.43229 4.9479v.1302l-.26041.2604h-.13021q0-.1302 0-.2604.13021-.2604.13021-.3906.13021-.1302.13021 0 .1302 0 .1302.2604zm30.85942-41.0157.13021.1302q0 .1302-.26042.3907-.13021.1302-.39063.3906-.26041.2604-.52083.5208l-.26042.2604-.26041.1302q0-.1302.1302-.2604.26042-.2604.39063-.5208.26042-.2604.52083-.5208.26042-.2605.39063-.3907zm-29.55733 39.4532h-.13021q-.13021 0-.13021-.1302 0-.1302.39063-.9115.39062-.7812 1.43229-2.4739 1.17188-1.6927 2.47396-3.5157 1.30209-1.8229 2.21355-2.9948.91146-1.1718 1.04167-1.1718-1.82292 2.8646-3.77605 5.7291-2.60417 3.9063-3.51563 5.4688z"/><path d="m386.19378 1198.5205q-1.95313 0-3.77605-3.6459-.26041-.3906-.52083-.5208-.39063-1.3021-.39063-2.7344 0-5.0781 5.20834-12.8906l-.26041.2604.26041-.5208q-2.86458 2.4739-5.72917 5.3385-7.03126 7.2917-15.88544 12.2396-2.73438-.651-4.6875-3.6458-1.4323-2.0834-1.4323-4.2969 0-3.9063 3.90626-10.4167 3.125-5.2083 6.64063-10.4167l5.72918-8.5937q2.21354-3.125 2.86458-3.125.52084 0 1.17188.9114.52083.2604.91146.6511-3.38542 4.0364-6.90105 8.9844-1.95313 2.8645-4.03647 5.4687-.65104.9115-1.82291 2.9948-3.64584 6.25-4.81772 8.724-.78125 1.3021-.78125 1.5625l1.43229-1.9531 6.90105-11.198q2.21355-3.5156 3.77605-5.7292 1.43229-1.4322 1.43229-1.5625.13021-.1302.26042-.651l.13021-.2604q1.17188-2.2136 1.5625-2.2136.13021 0 .13021.1302 0 .1303.13021.1303v-.2605q0-.5208 1.17187-1.6927 1.17188-1.1718 1.69271-2.2135.78126.651.78126 3.125.1302.3906.1302.9114 0 2.6042-5.46875 8.724-1.17188 1.3021-1.95313 2.3438 0 .1302-.78125 1.3021l-.65104.9114v.9115h-.13021q-1.04167.5208-2.34375 2.4739-1.17188 1.9532-2.34376 4.1667-1.17187 2.0833-1.95312 3.6458-.78126 1.4323-.78126 2.0834 0 .5208.52084.5208.39062 0 2.21354-.9114 1.69271-.9115 7.03126-5.4688 5.33855-4.5573 10.93751-9.6354 5.59897-5.0782 9.50522-8.4636.39063-.3906 1.04167-.3906.78125 0 2.21355.7812 1.43229.6511 2.73438 2.0834.78125.9114.78125 1.6927 0 .5208-.39063 1.0417-5.07813 6.6406-5.72917 6.7708-.52084.1302-.52084.7813 0 .651-.78125 1.4322 0 .2605-.52083 1.0417-1.95313 2.7344-2.21355 2.9948-.1302.1302-.91146 1.4323-.65104 1.3021-1.69271 3.125-.91146 1.8229-2.47396 4.9479 0 .2604.26042.2604.91146 0 7.03126-4.8177 7.6823-5.9896 10.41668-8.9844.26041-.5208.65104-.651.52083-.1302.78125-.1302.26042-.1302.39063-.2604h.1302q0-.1302-.1302-.1302v-.1302q0-.3907.52083-1.0417 1.69271-1.1719 5.98959-5.0781 4.29688-4.0365 4.94792-4.2969v.1302q0 .1302-.1302.2604 0 0-1.56251 1.5625-.91146.9115-1.17187.9115-.26042 0-.65105.651-.26041.5208-.39062.6511-.13021.1302-.39063.2604-.91146.651-2.60417 2.4739-3.25521 3.9063-6.1198 5.599v.1302q0 .2604-3.38542 3.6458-2.60417 2.6042-4.94792 4.5573l-.91146.9115v.1302l.65104-.5208q.65105-.5209 1.04167-.6511.13021 0 .13021.1302 0 .1302-.26042.3907v.1302q.13021 0 1.4323-1.0417 2.99479-2.474 7.94271-7.0313 3.90626-3.6458 6.64064-6.3802 4.16667-3.776 4.16667-4.6875.26042-1.5625 1.04167-1.5625.39062.2604.39062.6511 0 1.4323-1.5625 3.6458-1.04167 1.4323-1.95313 2.0833l-.52083.6511q-1.43229 1.1719-7.6823 7.0312-3.90626 3.9063-3.90626 4.4271l.26042.1302q0 .3907-.52083.7813-.39063.2604-.52084.5208v.1302l-.26041-.1302-.65105-.651q-.52083 0-.52083.651 0 .1302.26042.2604v.1302q0 .9115-3.12501 3.3855-2.21354 1.5625-2.86458 2.4739-1.30209 2.0834-4.29688 3.7761-2.47397 1.4323-4.5573 1.4323zm20.44273-21.7448.26042-.1303q.26042 0 .65104-.2604.39063-.3906.91146-.7812.52083-.3907.52083-.6511h-.1302q-.13021 0-1.04167.7813-.91146.7812-1.17188 1.0417zm-30.59899-8.3334q.1302 0 .78125-.7812.13021-.2605.26041-.3907.26042-.2604.39063-.3906.13021-.1302.26042-.651-.39063 0-1.04167 1.0416-.65104 1.0417-.65104 1.1719zm1.95312-2.7344.39063-.3906q.39062-.3906 1.17188-1.6927l.78125-1.1719-1.04167 1.3021q-1.30209 1.4323-1.30209 1.6927 0 .1302 0 .2604zm-1.95312.5209q.1302-.3907.78125-1.0417.78125-.7813 1.43229-1.6927.78125-.9115 1.17188-1.5625.52083-.7813.52083-1.1719v-.1302q-.26042.1302-.78125.7812-.52083.6511-1.17188 1.4323-.52083.7813-1.04166 1.4323-.39063.5209-.65105.7813-.26041.2604-.39062.5208 0 .2604 0 .3906 0 .2605.13021.2605zm-4.94793 6.7708.39063-.1302q1.17188-1.1719 1.82292-2.3438.65104-1.1718 1.5625-2.2135.91146-1.1719.91146-1.4323h-.13021q-.13021 0-.52083.2604-.26042.1302-.65105.5209-.26041.3906-.39062.7812 0 .2604-.13021.2604-.13021 0-.39063.1302-.1302 0-.26041.1302-.13021 0-.13021.1302l.13021.2605q0 .5208-.52084 1.3021-1.69271 1.8229-1.69271 2.3437zm27.34379-2.9948q.13021 0 .78125-.7812.13021-.2605.26041-.3907.26042-.2604.39063-.3906.13021-.1302.26042-.651-.39063 0-1.04167 1.0416-.65104 1.0417-.65104 1.1719zm0 .5208.78125-.9114q.13021-.1302.26041-.3906.26042-.2605.39063-.5209.26042-.2604.26042-.3906v-.1302q-.26042.1302-1.04167 1.1719-.65104 1.0416-.65104 1.1718zm-4.94793 4.4271.39063-.1302q1.17188-1.0416 1.82292-2.2135.65104-1.3021 1.43229-2.3438.91146-1.1719.91146-1.4323h-.13021l.13021-.3906h-.13021l-.26041.1302q-1.04167 1.0417-1.17188 1.4323 0 .2604-.13021.2604-.13021 0-.52083.1302-.26042 0-.26042.2605l.26042.2604q-.26042 0-.26042.2604h.13021q-.13021.3906-.52084.9114-1.69271 2.0834-1.69271 2.474l.26042-.1302zm-10.28647 19.1407v-.3906q0-1.6928 2.34376-6.9011 2.34375-5.2083 5.72917-11.0677 3.51563-5.8594 5.98959-8.724-.52083 0-3.125 3.3854-2.47396 3.2552-5.33855 7.9428-5.85938 9.7656-5.85938 14.1927 0 .9114.26041 1.5625zm10.80731-1.8229q.13021 0 .26042-.2605l.1302-.1302-.1302-.1302-.13021.1302q-.26042 0-.26042.1302 0 0 0 .1303 0 .1302.13021.1302z"/><path d="m454.42302 1155.4215q-1.04167 7.6823-7.55209 15.2344-6.38022 7.552-12.36981 12.7604-.39062.5208-.91146.9114v.1303q0 .1302-.13021.2604-.1302.1302-.39062.2604-.26042.1302-.39063.2604-.13021.1302-.13021.2604v.1302l-.26041.2604q-.39063.2605-.91146.5209-.39063.1302-.65104.3906l-.26042.1302v.1302q0 .1302-.26042.2604-.13021 0-.39062 0-.26042 0-.39063.1302-.13021.1303-.26042.3907 0 .1302-.13021.2604 0 .1302-.26041.2604-5.20834 3.9063-9.37501 3.9063-.13021 0-2.34376-.1302-2.21354-.1303-7.55209-4.8178l-.39062.3907q-.52084.3906-1.4323 1.5625-.91146 1.0416-2.34375 3.2552v.1302q-2.73438 3.776-4.81771 7.5521-.13021 0-.26042.2604-.13021.3906-.13021.651 0 .3907 0 .5209 0 .1302-.26042.651-.26041.5208-.65104 1.0417-.39063.651-.65104 1.0417-.39063.5208-.39063.651 0 .2604-.13021.2604-.1302.1302-.26041.1302-.13021.1302-.13021.1302-.13021.1302-.13021.3907 0 .1302.13021.5208 0 .2604-.13021.3906-.13021.1302-.39063.2604-.1302.1302-.26041.1302-.13021.1302-.13021.2605 0 .1302.13021.1302l.13021-.1302v.2604q0 .2604-.13021.7812-.26042.5209-.65105 1.1719-.39062.651-.78125.651-.65104.5209-1.04166 1.1719-.52084.6511-.78126 1.1719-.1302.3906-.1302.5208v.2604q.1302 0 .52083-.5208.39063-.3906 1.17188-1.8229.13021 0 .13021.1302 0 .1302 0 .3906-.13021.2604-.39063.9115-.39063.7812-.65104 1.4323-.52084.9114-.78125 1.5625-.13021.3906-.13021.5208v.1302q0 .2604-.26042.3906-.26042.1303-.52083.2605-.26042 0-.52084.1302-.26041.1302-.26041.3906 0 .2604.1302.2604.13021 0 .39063-.1302h.13021q.26042 0 .26042.3906 0 .1302-.13021.5209-.13021.5208-1.04167 1.8229-.13021.1302-.26042.5208-.26041.5209-.65104 1.1719-.39063.9115-.65104 1.5625-.39063.7813-.52084.7813v-.1303q0-.1302.26042-.9114.26042-.6511.26042-.9115-.13021 0-.13021 0-.13021.1302-.65104 1.1719-.52084 1.0417-1.17188 2.3438-.65104 1.4322-1.04167 2.4739-.52083 1.1719-.52083 1.5625-.39063 1.0417-.91146 2.474-.26042.7812-.39063 1.3021.39063-.1302.91146-1.3021.39063-1.0417.91146-2.3438.39063-1.3021.78125-1.9531v-.1302q0-.1302.13021-.3906 0-.2605.26042-.7813.13021-.3906.39062-.9114.26042-.5209.39063-.6511.13021-.1302.26042-.1302h.1302q.39063.3906.39063.651 0 .2605-.39063.2605-.26041 0-.65104.7812-.39062.7813-.65104 1.6927-.13021.6511-.13021 1.0417v.651h-.13021q-.26041.1302-.52083.7813-.39063.7812-.65104 1.6927-.13021.5208-.26042 1.0417-.26042.5208-.39063.651-.1302.2604-.26041.5208-.13021.2605-.13021.5209l.13021.1302q0 .1302-.13021.3906-.13021.2604-.26042.5208-.26042.5209-.26042.9115v.651q.13021.2605.13021.2605-.13021.1302-.13021.1302 0 .1302-.1302.2604h-.13021l-.13021.1302q0 .1302.13021.2604l.13021.2604h-.13021q-.39063.1302-.52084.7813-.26041.7812-.26041 1.6927-.13021 1.1719-.39063 1.9531-.39062.7813-.39062 1.5625 0 .2604 0 .7813 0 .5208.26041 1.3021.39063 1.0416.39063 1.8229-.26042.1302-.26042.3906 0 .2604 0 .5208 0 .2604 0 .5209-.13021.2604-.39062.5208h-.13021q-.13021 0-.26042 0-.26042 0-.65104-.3906-.39063-.3907-1.30209-1.1719-2.21354-1.9531-2.60417-3.5156-.26041-1.3021-.26041-2.9948v-1.3021q.1302-.3906.1302-.9115 4.42709-20.5729 15.10419-40.1042 10.6771-19.4011 22.91669-36.4584.26042-.5208.78126-1.1718.52083-.7813 1.17187-1.6928.65104-.7812 1.17188-1.5625.52083-.7812.65104-1.1718 1.17188-2.2136 2.47396-2.2136 1.30209 0 2.73438 2.2136 0 .1302.13021.3906.78125 1.5625.91146 3.2552v.5208q0 1.4323-1.17188 2.6042l1.95313-1.9531q3.64584-3.5156 8.72397-7.9427 5.07813-4.4271 9.50522-6.3802 1.69271-.7813 3.125-.7813 2.21355 0 3.38542 2.0833 0 .2605.26042.3907.26042 0 .52083 0 .26042.1302.52084.2604.26041 0 .26041.1302v.2604q.13021.1302.39063.2604l.39063.3906-.13021.1303q0 .3906.26041.9114.26042.7813.26042 2.2136zm-33.33337 15.7552q-1.4323 1.8229-2.9948 3.9062-.78125 1.1719-1.43229 2.0834 14.45314-16.2761 29.03649-26.4323.26042-.3907.26042-.5209 0-.1302-.13021-.1302-.26042 0-1.30208.5208-.91146.5209-3.64584 2.474-2.60417 1.9531-5.46876 4.2969-2.86459 2.2135-4.94792 4.0364-2.08334 1.6928-2.47396 2.2136-.52084.2604-.91146.7812-.26042.5209-.26042.9115-.13021.3906-1.30208 1.5625-1.04167 1.1719-2.34376 2.474 0 .1302-.13021.3906-.1302.2604-.39062.3906-.13021.1302-.39063.1302-.78125.6511-1.17187.9115zm-39.32297 72.6563q.13021 0 .26042-.1302 0-.1302 0-.3906v-.2604q-.13021 0-.13021.1302-.13021.1302-.13021.2604-.13021.1302-.13021.2604 0 .1302.13021.1302zm.26042-1.3021q.13021-.1302.13021-.3906 0-.1302 0-.3906v-.1302h-.13021l-.13021.1302q-.13021.5208-.13021.651 0 .1302.13021.1302zm.78125.2605q0-.1303 0-.1303-.13021.1303 0 .2605 0 .1302 0 .2604 0 .1302.13021.1302 0 .1302 0 0v-.1302q0-.2604-.13021-.3906zm.39063-1.3021q.1302-.2604.26041-.6511 0-.3906 0-.5208l-.13021-.1302v.1302q-.1302.1302-.26041.3906-.13021.3906-.13021.6511 0 .3906 0 .5208v.1302h.13021zm.1302-3.7761.26042-1.0416q.13021-.5209.26042-.9115l.13021-.2604-.13021.3906q-.26042.3906-.39063.9115-.26041.651-.39062 1.1718-.26042.6511-.39063 1.0417-.13021.5208-.13021.6511l.26042-.3907zm.65105-2.8646v.1302q.65104-1.4322.65104-1.6927v-.1302q-.26042 0-.65104 1.6927zm0 2.7344.13021.1302q.1302 0 .26041-.1302.13021-.1302.26042-.5208.13021-.3906.26042-.7813.1302-.2604.1302-.3906v-.1302q-.1302 0-.1302 0-.13021.1302-.26042.3906-.13021.2604-.26042.5209-.13021.3906-.26041.651zm1.43229-2.7344.13021-.3906-.13021-.1302h-.13021q-.13021 0-.26042.1302-.1302.1302-.1302.2604 0 .1302.1302.2604 0 .1303.13021.1303.13021 0 .26042-.2605zm-.13021-3.125q.26042-.7812.65104-1.8229.39063-1.0417.65105-1.8229.26041-.7813.26041-.9115-.13021 0-.39062.5209-.26042.651-.52084 1.5625-.39062.9114-.65104 1.6927-.39062.9114-.52083 1.4323 0 .2604.13021.2604zm3.25521-8.5937q.26042-.6511.26042-.9115-.13021 0-.39062.5208-.39063.6511-.65105 1.4323-.39062.9115-.65104 1.5625-.26042.6511-.26042.7813.65105-.651.91146-1.3021.26042-.651.52084-1.4323.13021-.2604.26041-.651zm2.08334-1.6927q.13021-.3907.26042-.7813.13021-.2604.13021-.3906-.13021 0-.26042.1302-.13021.2604-.26042.5208-.13021.3907-.26042.6511-.1302.2604-.1302.3906.1302 0 .26041-.1302 0 0 .26042-.3906zm2.99479-7.1615q-.1302 0-.26041.1302-.13021.2604-.26042.5208-.13021.3907-.13021.6511l-.13021.3906q.13021 0 .39063-.2604.13021-.2604.39062-.6511.13021-.3906.13021-.5208 0-.2604-.13021-.2604zm4.5573-14.3229v-.2605q-.26041.5209-.65104 1.0417-1.69271 2.474-2.47396 4.2969 0 .2604 0 .3906-.13021.1302-.26042.2604-.13021 0-.13021.1302-.13021.1303-.26041.3907-.13021.3906-.26042.5208h-.13021q-.13021-.1302-.26042-.1302-.13021 0-.13021.1302-.1302.1302-.1302.2604 0 .1302.1302.2604l.13021.1302q0 .1303-.13021.2605-.1302.2604-.26041.3906-.13021.2604-.39063.2604-.65104.7813-1.5625 2.6042-.91146 1.8229-1.82292 3.9062-2.47396 5.2084-5.72917 13.6719-3.25521 8.5938-3.90626 14.8438v2.6042q.13021 0 .26042-1.0417 1.5625-10.8073 6.64063-20.7032.65105-1.4323 1.30209-2.7343v-.3907q0-.1302.13021-.5208.13021-.3906.26041-.9115.26042-.3906.39063-.651v-.2604q0-.1302.13021-.2604.13021-.1302.26041-.2604.26042-.2605.39063-.5209l.13021-.1302-.13021-.1302q0-.3906.26042-.9115.26041-.5208.52083-1.0416.52084-.9115.65104-1.6927.13021-.5209.26042-.7813.13021-.1302.26042-.2604.13021-.1302.26041-.2604.13021-.1302.52084-.3906v-.3907l-.13021-.1302.26042-.2604q.13021-.1302.39062-.3906.13021-.1302.39063-.5209.13021-.2604.13021-.3906v-.1302l-.26042.1302h-.13021q0-.1302.13021-.3906.13021-.2604.39062-.5208.13021-.1303.39063-.2605 0-.3906.52083-1.0416.26042-.5209.52084-1.0417.26042-.3906.26042-.651.39062-1.3021 1.30208-2.474 1.17188-1.6927 1.5625-3.6458zm.91146-1.0417q.13021 0 .26042-.1302 0-.1302.13021-.3906 0-.1302-.13021-.1302v-.1303l-.26042.1303q-.26042.1302-.26042.2604v.1302q0 .1302 0 .1302 0 .1302.26042.1302zm2.21355-3.9063q.1302-.1302.26041-.2604 0-.2604.13021-.3906v-.1302q-.13021 0-.26042.1302-.1302.1302-.26041.3906-.26042.2604-.26042.5209-.13021.2604-.13021.3906.13021 0 .26042 0 0-.1302.26042-.6511zm6.77084-15.4948q.26041-.1302.52083-.5208.26042-.3906.52084-.9115.26041-.5208.39062-.7812-10.02605 13.8021-19.66148 31.9011-9.76564 18.0989-11.19793 35.1563 2.34375-12.5001 8.33334-25.9115 5.98959-13.2813 13.28127-25.7813 3.90625-6.9011 7.81251-13.1511zm22.91669 1.8229q.39063-.2604.65104-.651l.26042-.2604h-.13021q-.13021 0-.39062.1302-.13021.1302-.39063.3906-.26041.2604-.52083.5209-.26042.1302-.26042.2604v.1302l.13021-.1302q.13021 0 .65104-.3907zm-15.3646 4.948q5.20834-.5209 12.2396-5.9896 7.16147-5.599 13.28126-12.8907 6.25001-7.4218 8.33335-13.4114l.78125-.9115q-1.5625.9115-3.125 1.6927-2.21355 1.0417-4.16668 2.474-.1302.2604-.39062.3906-.13021 0-.39063 0-.26041 0-.52083.1302-.13021.1302-.13021.3906 0 .2605-.13021.3907 0 .1302-.13021.1302-.13021 0-.26041 0 0-.1302 0-.3907 0-.1302-.13021-.1302l-.26042.2605q-.26042.1302-.65104.5208-.26042.3906-.52084.7812-.1302.2605-.1302.3907-.13021.1302-.26042.2604-.13021 0-.26042 0-.13021 0-.26042.1302-.1302 0-.26041.2604l-.13021.1302q.13021 0 .26042-.1302h.26041q0 .1302-.13021.2604-.1302 0-.26041 0h-.39063q-.26041 0-.65104.2604-.39063.2605-.78125.7813-.39063.3906-.65104.7812-.39063.2605-.39063.3907h-.13021l.13021-.1302q0-.1302-.13021-.1302l-.26041.2604q-.39063.2604-1.17188.9114-.65104.6511-1.43229 1.5625-2.08334 2.3438-4.5573 4.948-4.03646 4.1666-7.81251 8.3333-3.77605 4.0365-5.72917 7.1615h.39062q.39063.1302.91146.1302z"/><path d="m499.47518 1155.4215q-1.04167 7.6823-7.5521 15.2344-6.38021 7.552-12.3698 12.7604-.39063.5208-.91146.9114v.1303q0 .1302-.13021.2604-.13021.1302-.39063.2604-.26041.1302-.39062.2604-.13021.1302-.13021.2604v.1302l-.26042.2604q-.39062.2605-.91146.5209-.39062.1302-.65104.3906l-.26042.1302v.1302q0 .1302-.26041.2604-.13021 0-.39063 0-.26042 0-.39063.1302-.1302.1303-.26041.3907 0 .1302-.13021.2604 0 .1302-.26042.2604-5.20834 3.9063-9.37501 3.9063-.13021 0-2.34375-.1302-2.21355-.1303-7.55209-4.8178l-.39063.3907q-.52083.3906-1.43229 1.5625-.91146 1.0416-2.34376 3.2552v.1302q-2.73437 3.776-4.81771 7.5521-.13021 0-.26042.2604-.13021.3906-.13021.651 0 .3907 0 .5209 0 .1302-.26041.651-.26042.5208-.65105 1.0417-.39062.651-.65104 1.0417-.39062.5208-.39062.651 0 .2604-.13021.2604-.13021.1302-.26042.1302-.13021.1302-.13021.1302-.13021.1302-.13021.3907 0 .1302.13021.5208 0 .2604-.13021.3906-.1302.1302-.39062.2604-.13021.1302-.26042.1302-.13021.1302-.13021.2605 0 .1302.13021.1302l.13021-.1302v.2604q0 .2604-.13021.7812-.26042.5209-.65104 1.1719-.39063.651-.78125.651-.65104.5209-1.04167 1.1719-.52083.6511-.78125 1.1719-.13021.3906-.13021.5208v.2604q.13021 0 .52083-.5208.39063-.3906 1.17188-1.8229.13021 0 .13021.1302 0 .1302 0 .3906-.13021.2604-.39063.9115-.39062.7812-.65104 1.4323-.52083.9114-.78125 1.5625-.13021.3906-.13021.5208v.1302q0 .2604-.26041.3906-.26042.1303-.52084.2605-.26042 0-.52083.1302-.26042.1302-.26042.3906 0 .2604.13021.2604.13021 0 .39062-.1302h.13021q.26042 0 .26042.3906 0 .1302-.13021.5209-.13021.5208-1.04167 1.8229-.1302.1302-.26041.5208-.26042.5209-.65105 1.1719-.39062.9115-.65104 1.5625-.39062.7813-.52083.7813v-.1303q0-.1302.26041-.9114.26042-.6511.26042-.9115-.13021 0-.13021 0-.13021.1302-.65104 1.1719-.52083 1.0417-1.17188 2.3438-.65104 1.4322-1.04166 2.4739-.52084 1.1719-.52084 1.5625-.39062 1.0417-.91146 2.474-.26041.7812-.39062 1.3021.39062-.1302.91146-1.3021.39062-1.0417.91146-2.3438.39062-1.3021.78125-1.9531v-.1302q0-.1302.13021-.3906 0-.2605.26041-.7813.13021-.3906.39063-.9114.26042-.5209.39062-.6511.13021-.1302.26042-.1302h.13021q.39062.3906.39062.651 0 .2605-.39062.2605-.26042 0-.65104.7812-.39063.7813-.65105 1.6927-.1302.6511-.1302 1.0417v.651h-.13021q-.26042.1302-.52084.7813-.39062.7812-.65104 1.6927-.13021.5208-.26042 1.0417-.26041.5208-.39062.651-.13021.2604-.26042.5208-.13021.2605-.13021.5209l.13021.1302q0 .1302-.13021.3906-.13021.2604-.26041.5208-.26042.5209-.26042.9115v.651q.13021.2605.13021.2605-.13021.1302-.13021.1302 0 .1302-.13021.2604h-.13021l-.13021.1302q0 .1302.13021.2604l.13021.2604h-.13021q-.39062.1302-.52083.7813-.26042.7812-.26042 1.6927-.13021 1.1719-.39062 1.9531-.39063.7813-.39063 1.5625 0 .2604 0 .7813 0 .5208.26042 1.3021.39062 1.0416.39062 1.8229-.26041.1302-.26041.3906 0 .2604 0 .5208 0 .2604 0 .5209-.13021.2604-.39063.5208h-.13021q-.13021 0-.26042 0-.26041 0-.65104-.3906-.39062-.3907-1.30208-1.1719-2.21355-1.9531-2.60417-3.5156-.26042-1.3021-.26042-2.9948v-1.3021q.13021-.3906.13021-.9115 4.42709-20.5729 15.10418-40.1042 10.6771-19.4011 22.9167-36.4584.26042-.5208.78125-1.1718.52083-.7813 1.17188-1.6928.65104-.7812 1.17187-1.5625.52084-.7812.65104-1.1718 1.17188-2.2136 2.47397-2.2136 1.30208 0 2.73437 2.2136 0 .1302.13021.3906.78125 1.5625.91146 3.2552v.5208q0 1.4323-1.17187 2.6042l1.95312-1.9531q3.64584-3.5156 8.72397-7.9427 5.07813-4.4271 9.50522-6.3802 1.69271-.7813 3.12501-.7813 2.21354 0 3.38542 2.0833 0 .2605.26041.3907.26042 0 .52084 0 .26041.1302.52083.2604.26042 0 .26042.1302v.2604q.13021.1302.39062.2604l.39063.3906-.13021.1303q0 .3906.26042.9114.26042.7813.26042 2.2136zm-33.33338 15.7552q-1.43229 1.8229-2.99479 3.9062-.78125 1.1719-1.4323 2.0834 14.45315-16.2761 29.0365-26.4323.26041-.3907.26041-.5209 0-.1302-.13021-.1302-.26041 0-1.30208.5208-.91146.5209-3.64584 2.474-2.60417 1.9531-5.46875 4.2969-2.86459 2.2135-4.94793 4.0364-2.08333 1.6928-2.47396 2.2136-.52083.2604-.91146.7812-.26041.5209-.26041.9115-.13021.3906-1.30209 1.5625-1.04167 1.1719-2.34375 2.474 0 .1302-.13021.3906-.13021.2604-.39063.3906-.13021.1302-.39062.1302-.78125.6511-1.17188.9115zm-39.32296 72.6563q.13021 0 .26041-.1302 0-.1302 0-.3906v-.2604q-.1302 0-.1302.1302-.13021.1302-.13021.2604-.13021.1302-.13021.2604 0 .1302.13021.1302zm.26041-1.3021q.13021-.1302.13021-.3906 0-.1302 0-.3906v-.1302h-.13021l-.1302.1302q-.13021.5208-.13021.651 0 .1302.13021.1302zm.78125.2605q0-.1303 0-.1303-.1302.1303 0 .2605 0 .1302 0 .2604 0 .1302.13021.1302 0 .1302 0 0v-.1302q0-.2604-.13021-.3906zm.39063-1.3021q.13021-.2604.26042-.6511 0-.3906 0-.5208l-.13021-.1302v.1302q-.13021.1302-.26042.3906-.13021.3906-.13021.6511 0 .3906 0 .5208v.1302h.13021zm.13021-3.7761.26042-1.0416q.1302-.5209.26041-.9115l.13021-.2604-.13021.3906q-.26041.3906-.39062.9115-.26042.651-.39063 1.1718-.26042.6511-.39062 1.0417-.13021.5208-.13021.6511l.26041-.3907zm.65104-2.8646v.1302q.65104-1.4322.65104-1.6927v-.1302q-.26041 0-.65104 1.6927zm0 2.7344.13021.1302q.13021 0 .26042-.1302.13021-.1302.26041-.5208.13021-.3906.26042-.7813.13021-.2604.13021-.3906v-.1302q-.13021 0-.13021 0-.13021.1302-.26042.3906-.1302.2604-.26041.5209-.13021.3906-.26042.651zm1.43229-2.7344.13021-.3906-.13021-.1302h-.1302q-.13021 0-.26042.1302-.13021.1302-.13021.2604 0 .1302.13021.2604 0 .1303.13021.1303.13021 0 .26041-.2605zm-.1302-3.125q.26041-.7812.65104-1.8229.39062-1.0417.65104-1.8229.26042-.7813.26042-.9115-.13021 0-.39063.5209-.26041.651-.52083 1.5625-.39063.9114-.65104 1.6927-.39063.9114-.52084 1.4323 0 .2604.13021.2604zm3.25521-8.5937q.26042-.6511.26042-.9115-.13021 0-.39063.5208-.39063.6511-.65104 1.4323-.39063.9115-.65105 1.5625-.26041.6511-.26041.7813.65104-.651.91146-1.3021.26041-.651.52083-1.4323.13021-.2604.26042-.651zm2.08333-1.6927q.13021-.3907.26042-.7813.13021-.2604.13021-.3906-.13021 0-.26042.1302-.13021.2604-.26041.5208-.13021.3907-.26042.6511-.13021.2604-.13021.3906.13021 0 .26042-.1302 0 0 .26041-.3906zm2.9948-7.1615q-.13021 0-.26042.1302-.13021.2604-.26041.5208-.13021.3907-.13021.6511l-.13021.3906q.13021 0 .39062-.2604.13021-.2604.39063-.6511.13021-.3906.13021-.5208 0-.2604-.13021-.2604zm4.5573-14.3229v-.2605q-.26042.5209-.65105 1.0417-1.69271 2.474-2.47396 4.2969 0 .2604 0 .3906-.13021.1302-.26041.2604-.13021 0-.13021.1302-.13021.1303-.26042.3907-.13021.3906-.26042.5208h-.13021q-.1302-.1302-.26041-.1302-.13021 0-.13021.1302-.13021.1302-.13021.2604 0 .1302.13021.2604l.13021.1302q0 .1303-.13021.2605-.13021.2604-.26042.3906-.13021.2604-.39062.2604-.65105.7813-1.5625 2.6042-.91146 1.8229-1.82292 3.9062-2.47397 5.2084-5.72918 13.6719-3.25521 8.5938-3.90625 14.8438v2.6042q.13021 0 .26041-1.0417 1.56251-10.8073 6.64064-20.7032.65104-1.4323 1.30208-2.7343v-.3907q0-.1302.13021-.5208.13021-.3906.26042-.9115.26042-.3906.39062-.651v-.2604q0-.1302.13021-.2604.13021-.1302.26042-.2604.26042-.2605.39062-.5209l.13021-.1302-.13021-.1302q0-.3906.26042-.9115.26042-.5208.52084-1.0416.52083-.9115.65104-1.6927.13021-.5209.26042-.7813.1302-.1302.26041-.2604.13021-.1302.26042-.2604.13021-.1302.52083-.3906v-.3907l-.13021-.1302.26042-.2604q.13021-.1302.39063-.3906.13021-.1302.39062-.5209.13021-.2604.13021-.3906v-.1302l-.26042.1302h-.1302q0-.1302.1302-.3906.13021-.2604.39063-.5208.13021-.1303.39062-.2605 0-.3906.52084-1.0416.26042-.5209.52083-1.0417.26042-.3906.26042-.651.39063-1.3021 1.30208-2.474 1.17188-1.6927 1.56251-3.6458zm.91146-1.0417q.1302 0 .26041-.1302 0-.1302.13021-.3906 0-.1302-.13021-.1302v-.1303l-.26041.1303q-.26042.1302-.26042.2604v.1302q0 .1302 0 .1302 0 .1302.26042.1302zm2.21354-3.9063q.13021-.1302.26042-.2604 0-.2604.13021-.3906v-.1302q-.13021 0-.26042.1302-.13021.1302-.26042.3906-.26041.2604-.26041.5209-.13021.2604-.13021.3906.13021 0 .26041 0 0-.1302.26042-.6511zm6.77084-15.4948q.26042-.1302.52084-.5208.26041-.3906.52083-.9115.26042-.5208.39063-.7812-10.02606 13.8021-19.66149 31.9011-9.76563 18.0989-11.19793 35.1563 2.34376-12.5001 8.33335-25.9115 5.98959-13.2813 13.28126-25.7813 3.90626-6.9011 7.81251-13.1511zm22.9167 1.8229q.39062-.2604.65104-.651l.26042-.2604h-.13021q-.13021 0-.39063.1302-.13021.1302-.39062.3906-.26042.2604-.52084.5209-.26041.1302-.26041.2604v.1302l.1302-.1302q.13021 0 .65105-.3907zm-15.36461 4.948q5.20834-.5209 12.2396-5.9896 7.16147-5.599 13.28127-12.8907 6.25001-7.4218 8.33334-13.4114l.78125-.9115q-1.5625.9115-3.125 1.6927-2.21354 1.0417-4.16667 2.474-.13021.2604-.39063.3906-.13021 0-.39062 0-.26042 0-.52084.1302-.13021.1302-.13021.3906 0 .2605-.1302.3907 0 .1302-.13021.1302-.13021 0-.26042 0 0-.1302 0-.3907 0-.1302-.13021-.1302l-.26041.2605q-.26042.1302-.65105.5208-.26041.3906-.52083.7812-.13021.2605-.13021.3907-.13021.1302-.26042.2604-.13021 0-.26041 0-.13021 0-.26042.1302-.13021 0-.26042.2604l-.13021.1302q.13021 0 .26042-.1302h.26042q0 .1302-.13021.2604-.13021 0-.26042 0h-.39062q-.26042 0-.65105.2604-.39062.2605-.78125.7813-.39062.3906-.65104.7812-.39062.2605-.39062.3907h-.13021l.13021-.1302q0-.1302-.13021-.1302l-.26042.2604q-.39063.2604-1.17188.9114-.65104.6511-1.43229 1.5625-2.08334 2.3438-4.5573 4.948-4.03646 4.1666-7.81251 8.3333-3.77604 4.0365-5.72917 7.1615h.39063q.39062.1302.91145.1302z"/><path d="m529.1627 1182.2444h-.13021q-.13021 0-.13021-.1302 0-.1302.26042-.3906.26041-.2604.26041-.6511l-.1302-.2604q.26041 0 .39062.6511l1.30209-1.0417q.52083-.3906 1.17187-.9115.65105-.5208.78125-.5208h.13021q-.26041.2604-.78125.651-.52083.3907-.52083.5209h.13021l1.17187-1.1719 1.5625-.7813h.13021q0 .1303-.65104.6511-.52083.5208-1.5625 1.3021-1.04167.651-1.95313 1.3021-.91146.651-1.43229.7812zm-25.39066 14.7136q-1.82292 0-3.38542-.9115l-1.04167-1.5625q-3.64584-4.8177-3.64584-10.9375 0-4.4271 3.12501-8.9844 2.99479-4.6875 8.98438-10.1563 5.72918-5.7291 13.28127-10.8073 6.1198-4.1666 11.19793-4.1666 1.04167 0 1.95313.1302 2.99479 2.3437 2.99479 5.7291 0 1.0417-.78125 4.1667-.78125 2.9948-5.59896 7.0313-4.68751 3.9062-10.6771 3.9062-2.86459 0-6.25001-1.9531l-1.04166.9115q-3.12501 3.125-6.1198 6.3802-3.90626 4.2969-5.46876 7.0312-.52083 1.0417-.91146 3.125-.39062 1.9532-.39062 2.9948 0 1.6928 1.82291 1.6928 3.38542 0 7.03126-1.5626l8.59376-3.9062q.65105-.3906.78125-.7813.13021-.3906.91146-1.0416 5.72918-3.3854 15.88544-11.4584-.65104 1.0417-3.25521 3.2552-2.60417 2.0834-5.72918 4.2969-2.99479 2.2136-4.6875 3.3854-.78125.2605-1.30209.7813-.52083.3906-.52083.5208 0 .1302.13021.1302l1.30208-.5208q.26042 0 .26042.1302 0 .2604-.39063.5208-.26041.2605-.26041.3907l1.95312-.9115q4.03647-2.3437 6.77085-5.0781 1.69271-1.5625 3.77604-3.125 2.9948-2.3438 5.20834-4.6875 1.69271-1.823 1.69271-2.3438l-.13021-.1302-.39062.1302q0-.2604.65104-.7812.65104-.6511 1.30209-1.0417.78125-.5208.91146-.5208h.1302l-.1302.2604q0 .2604.26041.651.26042.2604.26042.5209 0 1.4322-5.85938 6.6406-.65105.5208-.65105.651-5.72917 4.6875-10.67709 8.2032-4.81772 3.3854-8.20314 3.9062-.13021.2604-1.30208.9115-2.47396 1.5625-5.20834 2.6042-1.04167.2604-1.04167.5208 0 .2604.65104.2604 1.30209 0 2.34376-.651 1.17187-.7813 2.08333-.7813l.52084.1302q.26041 0 .78125-.2604.65104-.2604 1.43229-.5208.78125-.2605 1.69271-.6511 1.04167-.5208 2.73438-1.6927 2.34375-1.8229 4.03646-2.8646 1.69271-1.0416 1.82292-1.0416l.13021.1302q0 .1302-.26042.2604-.13021.1302-1.43229 1.1719-.52083.5208-2.47396 1.6927l-1.82292 1.1718q-1.69271 1.0417-1.95313 1.6928-1.17188.7812-1.17188 1.0416-.1302.3907-1.69271 1.5625l-1.30208.7813h.39063q.39062 0 .39062.1302 0 .2604-1.95313 1.0417-1.95312.7812-2.60417 1.0416-2.21354 1.1719-6.38021 1.9532-1.04167.2604-2.08334.2604zm14.97398-29.6876q2.08333 0 4.94792-1.4323 2.9948-1.5625 5.59897-4.4271 2.60417-2.9947 2.99479-4.8177-1.82292.5209-3.64584 1.4323-5.46875 2.6042-12.63022 8.724 1.30208.5208 2.73438.5208zm-13.02085 1.8229.13021-.1302q.13021-.1302.39062-.3906.39063-.3906.65105-.7812zm-8.07293 14.323q5.46876-11.1979 13.41148-18.2292 8.07292-7.0313 14.45314-10.2865l6.38022-3.2552q-1.04167 0-4.68751 1.6927-9.11459 4.1667-15.88544 10.2865-3.64583 3.2552-5.85938 5.9896v-.1302q-.13021 0-.13021.1302-.13021 0-.65104.651-.65104.6511-.65104.7813l.65104-.6511q-3.125 3.7761-5.07813 7.0313-1.95313 3.2552-1.95313 5.7292z"/><path d="m529.2929 1215.9684h-.26041q-1.69271 0-4.29688-2.3437l-.52084-.3907q-1.69271-1.3021-1.69271-2.4739-.13021-1.0417-.39062-1.823l-.26042-2.4739q0-.6511.26042-1.5625 4.94792-16.0157 17.96877-35.9376 12.89064-19.9219 21.35419-30.8594l8.20314-9.375-.26042.1302q-.65104 0-1.95313.2604-2.47396.3907-3.77604.3907-1.04167 0-1.56251-.3907v.1303l-.1302.1302q-.26042.1302-.78126.2604-.39062 0-1.04166.1302-.52084 0-.78125.1302-2.47397.7812-6.38022 1.4323-3.77605.5208-7.42188 1.0417-3.51563.3906-4.94793.5208-1.5625 0-2.60417.2604-1.04167.2604-1.95312.651-.91146.2605-1.95313.5209-2.21355 0-2.21355-3.2552 0-3.6459 2.08334-3.6459h.91146q.78125 0 1.30208-.2604 1.56251-.7812 2.9948-.7812l2.21354.2604q1.30209 0 3.12501-.3906 10.15626-1.0417 18.75002-1.4323l10.41668-.6511q14.45314-15.7552 17.57815-18.099.65104-.651.65104-1.1718.13021-.5209.26042-.7813.1302-.2604.65104-.2604 1.30208 0 2.60417 1.5625 2.08333 2.6042 2.08333 4.5573 0 .9115-.52083 1.4323-1.69271 1.6927-5.20834 4.9479-3.51563 3.125-8.33334 7.8125 4.6875-.2604 8.46355-.651h2.60417v-.1302l1.95313-.1302-.26042.2604h.13021q.52083 0 .52083-.2604h.52084v.1302q15.75522.2604 15.75522.3906 0 .1302-7.16146.1302h-8.98439l-13.8021.5208-.65104.5209q1.82292 0 2.86458-.1302h4.16668l2.08333-.1302-.13021.1302q1.17188 0 1.69271-.1302h1.69271v.1302h.52084l.13021-.1302h1.17187q5.85939 0 13.15106.2604 6.38022.2604 11.84897.2604 4.16668 0 7.6823-.1302 0 .3906 1.56251.3906 1.5625 0 1.69271-.1302.26041-.2604.39062-.2604l.26042.2604q.26042.2604.39062.2604l-.1302-.2604q0-.1302.1302-.1302.39063 0 1.04167.2604.78125.1302 1.17188.2604.52083 0 1.82292 0-3.64584.2604-7.55209.2604-6.51043 0-16.66669-.9114h-1.30209.26042q.26042.1302.26042.3906l-.78125.1302q-22.00524.3906-31.51046 1.5625-3.64584 3.5156-7.6823 7.9427-.52083.5209-.78125 1.3021-.26042.6511-1.95313 1.6927-1.04167 1.0417-1.69271 2.2136-1.30208 2.0833-3.125 3.776-.65104 1.3021-3.90626 4.6875-10.02605 14.8438-11.32814 17.1875-1.82291 3.125-4.42708 7.0313l-.13021.3906q-1.17188 1.6927-3.77605 6.25-8.07293 14.5834-11.06772 25.1303-.91146 3.2552-.91146 5.7292 0 2.2135.78125 3.6458l.13021.7812q0 .9115-1.30209 1.0417zm17.96878-88.0209q.1302 0 .1302 0 .13021-.1302.39063-.3907l-.26042-.1302-.13021.1302q-.1302.1302-.1302.2605zm2.60417-.5209 7.81251-.651 4.42708-.3906q0-.1302-1.30208-.1302-1.95313 0-5.33855.3906-3.38542.2604-5.59896.7812zm16.40627 7.5521.1302-.1302q.13021 0 .13021-.5208l.39063-.2604-.39063.3906q-.39062.2604-.39062.5208zm-3.12501 3.5157q.26042 0 .39063-.2605.26041-.3906.39062-.3906.13021-.1302.39063-.3906v.1302q.13021 0 .65104-.651.65104-.7813.65104-1.4323l.13021-.2605-.52083.3907q-1.30209 1.6927-1.5625 1.8229-.65105.7812-.65105 1.0417zm.26042 2.9947.26042-.5208h-.13021q-.13021 0-.26042 0 0 0-.13021.5208zm-39.06255 59.2449q2.86459-5.599 8.59376-15.7552 14.58335-25.3907 21.09378-34.7657 1.69271-1.3021 1.69271-2.0833 0-.3906 1.04167-1.9531l.65104-.6511q.13021 0 .26042.1302v.1302h.1302v-.3906q0-.3906 1.17188-1.5625 1.82292-2.0833 1.82292-2.9948l-.26042.3906q-5.33855 6.25-10.67709 13.9323-6.51043 9.7657-18.61982 32.1615-5.33855 9.6355-6.90105 13.4115zm-.26042 5.7292q1.82292-4.1667 6.64064-13.0209 10.93751-19.7917 17.05731-30.0781 0-.2604.52083-1.3021.65105-1.0417.65105-1.3021l-.39063.1302-1.69271 2.7344q-3.125 5.3385-8.46355 14.5833-5.33855 9.1146-9.63543 17.448-4.42709 8.2031-4.68751 10.8073zm22.78649-39.8438q.13021 0 .39063-.2604.26041-.2604.26041-.3907.13021-.1302.13021-.2604l-.26042-.2604-.26041.2604q-.26042.2604-.26042.5209 0 .2604 0 .3906zm.91146-1.4323.39063-.2604q.39062-.2604.39062-.3906 0-.2605-.13021-.2605l-.39062.2605q-.39063.2604-.39063.5208 0 .1302.13021.1302zm1.43229.7812.13021-.1302q.13021 0 .13021-.2604l-.26042-.1302q-.26041 0-.26041.3906 0 .1302.26041.1302zm.39063-6.3802q.26042-.1302.39062-.3906-.39062 0-.65104.2604-.13021.1302 0 .1302zm4.81771-4.2969.26042-.2604q.26042-.1302.39063-.5208l.1302-.3906-.39062.2604q-.39063.2604-.39063.5208v.2604zm-3.25521 1.9532.39063-.1302q1.30208-1.0417 1.82291-2.2136.65105-1.3021 1.56251-2.3437.91146-1.0417.91146-1.3021l-.13021-.1302q-.13021 0-.39063.2604-.26041.2604-.65104.651-.26042.3907-.39063.6511-.1302.2604-.26041.3906 0 0-.26042 0-.13021 0-.26042.1302-.13021 0-.13021.1302l.13021.2604-.13021.3907q-.39062 1.0416-1.30208 1.9531-.91146.9115-.91146 1.3021zm5.07813-6.7709q.26042-.2604.91146-1.0416.65104-.7813 1.43229-1.6927.78126-.9115 1.17188-1.5625.39063-.7813.39063-1.0417v-.1302q-.13021 0-.65105.651-.52083.6511-1.17187 1.4323-.65104.7813-1.17188 1.4323-.39062.5208-.65104.7813-.26042.2604-.39063.5208-.13021.2604-.13021.3906 0 .2604.26042.2604zm-.13021 2.2136q.13021 0 .65105-.5209.52083-.651.78125-1.0416.26041-.3906.39062-.5209 0-.1302-.13021-.1302-.1302 0-.39062.3907-.13021.2604-.78125 1.0416-.52084.6511-.52084.7813zm1.95313-2.8646q.39063 0 .78125-.651.39063-.6511.91146-1.3021.52084-.7813.78125-1.1719l-1.43229 1.5625q-1.04167 1.4323-1.04167 1.5625zm2.47396-4.9479q.13021 0 .39063-.2604.26041-.2605.52083-.5209.26042-.3906.39063-.651.13021-.2604.26041-.3906v-.1303q-.1302 0-.91146.7813-.65104.651-.65104 1.0417zm1.30209-4.8177q.13021-.1303.52083-.5209.39063-.5208.39063-.7812h-.13021q-.13021 0-.39063.2604-.26041.1302-.52083.5208-.26042.2604-.26042.3906 0 .1303.13021.1303zm2.21354 2.3437.13021-.1302q0-.2604-1.69271-.2604l-.13021.2604zm.39063-1.9531q0-.1302.39062-.6511.52084-.5208.91146-1.1718.52084-.6511.91146-1.1719l.39063-.5208q-.13021 0-.52084.5208-2.34375 2.3437-2.34375 2.9948zm3.90625-8.2032.39063-.2604q.39062-.2604.39062-.3906-.13021 0-.52083.1302-.26042.1302-.26042.2604 0 .1302 0 .2604zm-5.07813-5.9895.13021-.1303-.78125-.1302q.26041.2605.65104.2605zm.91146 2.3437q.13021 0 .13021-.1302l-.65104-.1302v.1302q0 .1302.26041.1302h.13021zm1.95313-2.474q.52083-.1302.52083-.1302.13021 0 .13021-.1302h-1.95313v.2604zm1.17187 2.6042 1.30209-.3906v-.1302l-1.04167-.2604h-1.17188l-1.04166.2604q0 .1302 0 .3906 0 .1302 1.17187.1302zm.91146-2.8646q.39063 0 .52084-.1302 0-.2604-.65105-.2604l-.52083.2604q0 .1302.65104.1302zm1.95313 2.3438.39063-.5209-1.4323.2605q0 .1302.39063.1302.52083 0 .65104.1302zm-.39063-2.474q2.47397-.1302 2.47397-.1302.1302-.1302.26041-.1302.13021-.1302.13021-.1302.13021-.1302.26042-.2604-.39063 0-2.08334.2604-1.69271.1302-1.69271.2604 0 .1302.65104.1302zm6.51043-1.5625.26042-.7812h-.13021q-.39063.3906-.39063.651 0 .1302.26042.1302z"/><path d="m585.41276 1182.2444h-.13021q-.13021 0-.13021-.1302 0-.1302.26042-.3906.26042-.2604.26042-.6511l-.13021-.2604q.26041 0 .39062.6511l1.30209-1.0417q.52083-.3906 1.17187-.9115.65105-.5208.78125-.5208h.13021q-.26041.2604-.78125.651-.52083.3907-.52083.5209h.13021l1.17187-1.1719 1.56251-.7813h.1302q0 .1303-.65104.6511-.52083.5208-1.5625 1.3021-1.04167.651-1.95313 1.3021-.91146.651-1.43229.7812zm-25.39066 14.7136q-1.82292 0-3.38542-.9115l-1.04167-1.5625q-3.64583-4.8177-3.64583-10.9375 0-4.4271 3.125-8.9844 2.99479-4.6875 8.98439-10.1563 5.72917-5.7291 13.28126-10.8073 6.1198-4.1666 11.19793-4.1666 1.04167 0 1.95313.1302 2.99479 2.3437 2.99479 5.7291 0 1.0417-.78125 4.1667-.78125 2.9948-5.59896 7.0313-4.68751 3.9062-10.6771 3.9062-2.86458 0-6.25001-1.9531l-1.04166.9115q-3.12501 3.125-6.1198 6.3802-3.90626 4.2969-5.46876 7.0312-.52083 1.0417-.91146 3.125-.39062 1.9532-.39062 2.9948 0 1.6928 1.82291 1.6928 3.38543 0 7.03126-1.5626l8.59376-3.9062q.65105-.3906.78125-.7813.13021-.3906.91146-1.0416 5.72918-3.3854 15.88544-11.4584-.65104 1.0417-3.25521 3.2552-2.60417 2.0834-5.72918 4.2969-2.99479 2.2136-4.6875 3.3854-.78125.2605-1.30209.7813-.52083.3906-.52083.5208 0 .1302.13021.1302l1.30208-.5208q.26042 0 .26042.1302 0 .2604-.39063.5208-.26041.2605-.26041.3907l1.95313-.9115q4.03646-2.3437 6.77084-5.0781 1.69271-1.5625 3.77604-3.125 2.9948-2.3438 5.20834-4.6875 1.69271-1.823 1.69271-2.3438l-.13021-.1302-.39062.1302q0-.2604.65104-.7812.65104-.6511 1.30209-1.0417.78125-.5208.91146-.5208h.1302l-.1302.2604q0 .2604.26041.651.26042.2604.26042.5209 0 1.4322-5.85938 6.6406-.65104.5208-.65104.651-5.72918 4.6875-10.6771 8.2032-4.81772 3.3854-8.20314 3.9062-.1302.2604-1.30208.9115-2.47396 1.5625-5.20834 2.6042-1.04167.2604-1.04167.5208 0 .2604.65104.2604 1.30209 0 2.34376-.651 1.17187-.7813 2.08333-.7813l.52084.1302q.26041 0 .78125-.2604.65104-.2604 1.43229-.5208.78125-.2605 1.69271-.6511 1.04167-.5208 2.73438-1.6927 2.34375-1.8229 4.03646-2.8646 1.69271-1.0416 1.82292-1.0416l.13021.1302q0 .1302-.26042.2604-.13021.1302-1.43229 1.1719-.52083.5208-2.47396 1.6927l-1.82292 1.1718q-1.69271 1.0417-1.95313 1.6928-1.17187.7812-1.17187 1.0416-.13021.3907-1.69271 1.5625l-1.30209.7813h.39063q.39062 0 .39062.1302 0 .2604-1.95313 1.0417-1.95312.7812-2.60417 1.0416-2.21354 1.1719-6.38021 1.9532-1.04167.2604-2.08334.2604zm14.97398-29.6876q2.08333 0 4.94792-1.4323 2.9948-1.5625 5.59897-4.4271 2.60417-2.9947 2.99479-4.8177-1.82292.5209-3.64584 1.4323-5.46875 2.6042-12.63022 8.724 1.30209.5208 2.73438.5208zm-13.02085 1.8229.13021-.1302q.13021-.1302.39062-.3906.39063-.3906.65105-.7812zm-8.07293 14.323q5.46876-11.1979 13.41148-18.2292 8.07292-7.0313 14.45314-10.2865l6.38022-3.2552q-1.04167 0-4.68751 1.6927-9.11459 4.1667-15.88544 10.2865-3.64583 3.2552-5.85938 5.9896v-.1302q-.13021 0-.13021.1302-.1302 0-.65104.651-.65104.6511-.65104.7813l.65104-.6511q-3.125 3.7761-5.07813 7.0313-1.95313 3.2552-1.95313 5.7292z"/><path d="m619.52738 1182.2444h-.13021q-.1302 0-.1302-.1302 0-.1302.26041-.3906.26042-.2604.26042-.6511l-.13021-.2604q.26042 0 .39063.6511l1.30208-1.0417q.52084-.3906 1.17188-.9115.65104-.5208.78125-.5208h.13021q-.26042.2604-.78125.651-.52084.3907-.52084.5209h.13021l1.17188-1.1719 1.5625-.7813h.13021q0 .1303-.65104.6511-.52084.5208-1.56251 1.3021-1.04166.651-1.95312 1.3021-.91146.651-1.4323.7812zm-25.39065 14.7136q-1.82292 0-3.38542-.9115l-1.04167-1.5625q-3.64584-4.8177-3.64584-10.9375 0-4.4271 3.125-8.9844 2.9948-4.6875 8.98439-10.1563 5.72917-5.7291 13.28127-10.8073 6.11979-4.1666 11.19793-4.1666 1.04166 0 1.95312.1302 2.9948 2.3437 2.9948 5.7291 0 1.0417-.78125 4.1667-.78125 2.9948-5.59897 7.0313-4.6875 3.9062-10.67709 3.9062-2.86459 0-6.25001-1.9531l-1.04167.9115q-3.125 3.125-6.1198 6.3802-3.90625 4.2969-5.46875 7.0312-.52084 1.0417-.91146 3.125-.39063 1.9532-.39063 2.9948 0 1.6928 1.82292 1.6928 3.38542 0 7.03126-1.5626l8.59376-3.9062q.65104-.3906.78125-.7813.13021-.3906.91146-1.0416 5.72917-3.3854 15.88543-11.4584-.65104 1.0417-3.25521 3.2552-2.60417 2.0834-5.72917 4.2969-2.9948 2.2136-4.68751 3.3854-.78125.2605-1.30208.7813-.52084.3906-.52084.5208 0 .1302.13021.1302l1.30209-.5208q.26041 0 .26041.1302 0 .2604-.39062.5208-.26042.2605-.26042.3907l1.95313-.9115q4.03646-2.3437 6.77084-5.0781 1.69271-1.5625 3.77605-3.125 2.99479-2.3438 5.20834-4.6875 1.69271-1.823 1.69271-2.3438l-.13021-.1302-.39063.1302q0-.2604.65105-.7812.65104-.6511 1.30208-1.0417.78125-.5208.91146-.5208h.13021l-.13021.2604q0 .2604.26042.651.26041.2604.26041.5209 0 1.4322-5.85938 6.6406-.65104.5208-.65104.651-5.72917 4.6875-10.6771 8.2032-4.81771 3.3854-8.20313 3.9062-.13021.2604-1.30209.9115-2.47396 1.5625-5.20834 2.6042-1.04166.2604-1.04166.5208 0 .2604.65104.2604 1.30208 0 2.34375-.651 1.17188-.7813 2.08334-.7813l.52083.1302q.26042 0 .78125-.2604.65104-.2604 1.4323-.5208.78125-.2605 1.69271-.6511 1.04166-.5208 2.73437-1.6927 2.34376-1.8229 4.03647-2.8646 1.69271-1.0416 1.82292-1.0416l.1302.1302q0 .1302-.26041.2604-.13021.1302-1.4323 1.1719-.52083.5208-2.47396 1.6927l-1.82292 1.1718q-1.69271 1.0417-1.95312 1.6928-1.17188.7812-1.17188 1.0416-.13021.3907-1.69271 1.5625l-1.30209.7813h.39063q.39063 0 .39063.1302 0 .2604-1.95313 1.0417-1.95313.7812-2.60417 1.0416-2.21355 1.1719-6.38022 1.9532-1.04167.2604-2.08333.2604zm14.97397-29.6876q2.08334 0 4.94793-1.4323 2.99479-1.5625 5.59896-4.4271 2.60417-2.9947 2.9948-4.8177-1.82292.5209-3.64584 1.4323-5.46876 2.6042-12.63023 8.724 1.30209.5208 2.73438.5208zm-13.02085 1.8229.13021-.1302q.13021-.1302.39063-.3906.39062-.3906.65104-.7812zm-8.07292 14.323q5.46875-11.1979 13.41147-18.2292 8.07293-7.0313 14.45314-10.2865l6.38022-3.2552q-1.04167 0-4.68751 1.6927-9.11459 4.1667-15.88543 10.2865-3.64584 3.2552-5.85938 5.9896v-.1302q-.13021 0-.13021.1302-.13021 0-.65104.651-.65105.6511-.65105.7813l.65105-.6511q-3.12501 3.7761-5.07814 7.0313-1.95312 3.2552-1.95312 5.7292z"/><path d="m624.4753 1198.3903q-1.04166 0-1.95312-.7813-.91146-.7812-1.4323-1.5625-2.73438-3.2552-2.73438-6.901l.13021-1.3021q1.30209-4.9479 5.20834-10.9375 3.90626-5.9896 8.46356-11.9792 4.55729-6.1198 7.55209-10.9375.78125-1.4323 1.82292-1.4323 1.17187 0 2.34375 1.8229 1.43229 2.3437 1.43229 4.1667 0 1.5625-5.07813 7.0312-3.25521 3.7761-4.94792 6.1198l-2.08334 3.125q-3.51563 4.8177-6.77084 10.2865.65104 0 .65104-.1302 0-.2604.13021-.3906 8.07293-13.9323 17.31773-21.224 6.90105-5.4688 14.19273-5.7292 3.25521 0 5.46875 1.8229l2.08334 1.6927q1.43229 1.4323 1.69271 3.2552l.13021.3907-.52083.9114q-.39063-.1302-1.04167-.7812v-.1302q-.65105-.9115-1.04167-1.9532-.91146-1.8229-4.42709-1.8229-2.99479 0-6.38022 1.5625-7.94271 4.1667-14.84376 12.6302-5.98959 7.0313-10.54689 14.5834l-3.77605 6.5104q0 1.0417-.26041 1.0417 0 .2604-.13021.3906-.13021.6511-.65105.6511zm17.96878-31.7709 2.86458-2.3438-.65104.3907q-1.43229.7812-2.21354 1.9531zm-10.15627 11.9792.78125-.2604q.26042-1.0417 1.17188-1.6928.26042-.9114 1.17188-1.5625l.39062-.5208q.39063-.7812 3.90626-4.6875l2.60417-3.125q-1.04167.3906-1.5625 1.1719l-.26042.2604q-4.42709 4.5573-7.81251 9.6354-.26042.2604-.39063.5209 0 .1302 0 .2604zm-2.86458 4.1666q.39062-.1302.39062-.5208zm-.39063.6511q.26042 0 .39063-.1302 0-.2604 0-.3906-.26042 0-.26042.2604-.13021.1302-.13021.2604zm-.39062.651q.26041-.1302.39062-.2604 0-.1302 0-.2604-.26042 0-.26042.2604-.1302.1302-.1302.2604zm-2.9948 4.1667.52083-2.6042q-.39062.9115-.52083 2.6042zm6.1198-16.4063.39063-.1302q1.30208-1.1719 1.95312-2.3437.65105-1.3021 1.4323-2.3438.91146-1.1719.91146-1.5625-.13021 0-.65105.3906-.39062.3907-1.04166 1.3021l.1302.1302q0 .1302-.52083.1302-.52083 0-.52083.3907.26041.1302.26041.2604 0 .9114-1.5625 2.4739-.78125 1.0417-.78125 1.3021zm4.94792-7.0312q4.03647-4.0365 4.03647-5.4688v-.1302q-.39063 0-1.95313 2.0833-1.5625 2.0834-1.82292 2.3438l-.39063.9115q0 .2604.13021.2604zm.26042 2.4739.78125-.9114q.39063-.3907.52083-.7813.26042-.3906.39063-.5208 0-.1302-.13021-.1302-.13021 0-.39062.3906-.13021.2604-.52084.7813zm1.82292-2.8646q.52083 0 1.69271-2.0833l.78125-1.1719q-.26042 0-1.17188 1.1719-.91146 1.1719-1.30208 1.9531zm-16.40627 19.5313q.26042-.2604 1.30208-1.9531 1.04167-1.8229 2.60417-4.4271 2.21355-3.5156 4.42709-7.1615 2.34375-3.776 3.90626-5.9896.52083-.3906.91146-.9114.39062-.5208.52083-.7813.26042-.2604.26042-.3906v-.5208q.39062-.9115.91146-1.5625.52083-.6511.78125-.6511.13021 0 .13021.2604 0 .1303.1302.1303.13021 0 .13021-.3907v-.1302q0-.2604.26042-.651 1.95313-2.3438 2.60417-3.3854l.13021-.6511-.26042.2604q-3.64584 4.1667-7.29167 9.5053-1.95313 2.8645-3.90626 5.5989-1.95313 2.6042-4.6875 7.8125-1.30209 2.6042-2.08334 4.1667-.78125 1.5625-.78125 1.8229zm-.39063 5.4688q2.86459-6.5104 6.64064-12.6302.1302-.1303.26041-.2605 0-.1302.13021-.2604.13021-.1302.39063-.9114h-.26042l-1.04167 1.6927q-5.85938 9.1146-6.1198 12.3698zm2.08334 5.4687 1.17188-1.9531q1.30208-2.474 1.69271-2.8646h-.13021.13021-.13021v-.1302h.13021l1.43229-2.3437q4.6875-8.4636 11.84897-16.5365 4.5573-5.2084 11.06772-9.1146l.65105-.6511q.91146 0 1.43229-.651-.91146 0-1.43229.651-.26042.1302-.65105.2605-.39062 0-.78125.2604-2.86458 1.4323-5.20834 3.3854-4.81771 3.9062-8.46355 8.5938l-1.30208 1.302q-.26042.9115-1.30209 1.5625-.26042 1.0417-1.17188 1.6928-.26041.9114-1.30208 1.5625l.52083-1.1719q-1.82292 1.4323-2.47396 3.3854.26042 0 .52084-.1302.1302-.1302.39062-.1302-1.5625 2.0833-2.08333 3.2552v-.9115q-1.30209 1.1719-1.56251 2.7344h.39063q-.26042.6511-.52083.7813v-.6511q-.39063.3906-1.17188 1.9531-.78125 1.5626-1.30209 2.9948-.52083 1.4323-.52083 2.3438zm29.94795-34.5052q0-.1302 0-.1302h.13021.13021-.13021z"/></g></svg>