<svg viewBox="0 0 17.985 17.985" xmlns="http://www.w3.org/2000/svg"><g transform="matrix(.04698175 0 0 .04698175 -3.034804 .263689)"><path d="m322.978 338.23892c0 15.253-29.988 27.618-66.979 27.618s-66.979-12.365-66.979-27.618v-182.95492h133.957v182.95392h.001z" fill="#fff"/><path d="m127.432 109.322c-.083.328-.162.657-.237.988-.584 2.584-.889 5.212-.889 7.876 0 37.079 58.066 67.136 129.694 67.136s129.694-30.057 129.694-67.136c0-3.005-.387-5.963-1.127-8.863l-128.566-18.483z" fill="#f2f2f2"/><g fill="#fff"><path d="m127.432 109.322c29.671 12.958 76.221 21.307 128.568 21.307s98.896-8.35 128.568-21.307c-8.381-32.888-62.745-58.273-128.568-58.273s-120.187 25.385-128.568 58.273z"/><circle cx="206.38901" cy="44.111" r="36.199001"/><circle cx="305.616" cy="44.111" r="36.199001"/></g><circle cx="206.38901" cy="34.615002" r="13.747"/><circle cx="305.616" cy="34.615002" r="13.747"/><path d="m330.891 336.0306v-154.5356c37.999-13.218 62.716-36.399 62.716-63.309 0-3.606-.462-7.246-1.372-10.817-4.651-18.25-20.846-34.445-45.956-46.175 2.217-5.256 3.444-11.029 3.444-17.082.001-24.325-19.788-44.112-44.11-44.112-24.023 0-43.608 19.306-44.088 43.217-3.686-.079-7.37-.078-11.051 0-.479-23.911-20.065-43.217-44.087-43.217-24.322 0-44.111 19.787-44.111 44.111 0 6.054 1.227 11.826 3.444 17.082-25.105 11.727-41.298 27.917-45.955 46.17-.102.4-.198.799-.288 1.2-.72 3.18-1.085 6.417-1.085 9.623 0 26.91 24.718 50.092 62.716 63.309v154.5346c0 6.849 5.18831 13.53797 10.123 18.575 4.25285 4.34105 10.08308 7.06347 15.826 9.051 16.89843 5.84829 31.896 8.42 53.068 7.85.107-.003.214-.006.321-.01 5.486-.146 12.052-1.395 11.694-8.464-.221-4.365-3.922-7.716-8.303-7.502-2.609.132-5.226.206-7.838.206-22.099 0-39.565-4.595-49.608-9.955-.098-.056-.203-.107-.301-.162-.023-.013-.043-.025-.066-.037-.865-.501-1.707-1.021-2.523-1.559-.196-.129-.402-.233-.607-.343-3.863-2.626-5.961-5.314-5.961-7.647-6.10723-56.63287 13.85258-35.00814 55.984-17.195.985.417 2.033.625 3.082.625s2.096-.208 3.082-.625c47.78645-19.0521 55.984-38.23466 55.984 17.195 0 2.146-2.076 5.015-6.432 7.916-.044.027-.093.045-.136.074-4.557 3.01-9.722 5.037-14.925 6.629-4.179 1.28-6.529 5.705-5.25 9.883 1.28 4.179 5.705 6.529 9.883 5.249 2.046-.627 4.11493-1.21631 6.07-2.085 5.73942-2.55018 12.05717-4.66893 16.486-9.122 4.9673-4.99449 10.13-11.708 10.13-18.546zm-25.278-320.2046c15.597 0 28.285 12.688 28.285 28.285 0 20.492-23.204 34.746-41.377 25.016-9.082-4.863-15.193-14.67-15.193-25.016 0-15.597 12.688-28.285 28.285-28.285zm-99.226 0c15.597 0 28.285 12.688 28.285 28.285 0 20.915-23.957 35.058-42.162 24.589-8.681-4.991-14.407-14.539-14.407-24.589-.001-15.597 12.688-28.285 28.284-28.285zm-72.065 104.753c.058.021.118.041.176.062 12.287 4.483 25.027 7.698 37.846 10.239 4.282.85 8.45-1.937 9.299-6.224s-1.937-8.451-6.225-9.299c-12.823-2.542-25.568-5.805-37.807-10.437-.034-.014-.066-.026-.1-.039 5.724-11.447 18.723-22.129 36.996-30.301.317-.137 2.56 2.44 2.854 2.699 1.721 1.509 3.557 2.886 5.489 4.112.117.073.231.151.348.223 10.537 6.523 23.74 8.31 35.629 4.809 11.79-3.471 21.744-11.944 27.178-22.952.176-.358 1.663-4.357 1.874-4.37 5.432-.181 10.795-.181 16.239 0 2.086 5.765 5.443 11.097 9.681 15.521.034.035.066.071.1.106 14.265 14.648 37.486 17.697 54.906 6.883.108-.066.212-.137.32-.205 3.013-1.899 5.89-4.234 8.367-6.824 18.272 8.172 31.272 18.854 36.996 30.3.047.095-19.279 6.213-21.074 6.685-21.952 5.761-44.612 8.752-67.235 10.194-10.047.64-20.113.959-30.181.959-16.935 0-33.623-.893-49.601-2.652-4.338-.477-8.253 2.656-8.732 6.999-.478 4.344 2.656 8.254 6.999 8.732 16.551 1.823 33.822 2.747 51.333 2.747 38.799 0 78.587-3.714 115.622-15.869.391-.129 6.021-1.684 6.056-2.093-2.246 26.124-34.837 40.426-56.16 47.21-21.108 6.715-43.401 9.618-65.518 9.618-35.219 0-72.828-5.671-101.785-27.194-7.467-5.551-14.408-12.459-17.881-21.257-.332-.85-1.797-8.307-2.009-8.382zm121.677 72.656c21.265 0 41.256-2.508 59.066-7.016v37.284s-49.72029 3.42013-118.132 0v-37.284c17.812 4.508 37.802 7.016 59.066 7.016zm-59.066 54.143h118.132z"/></g></svg>